<?xml version="1.0" encoding="UTF-8" standalone="no"?>
<!-- Created with Inkscape (http://www.inkscape.org/) -->

<svg
   width="790.82922mm"
   height="592.35852mm"
   viewBox="0 0 790.82922 592.35852"
   version="1.1"
   id="svg5"
   xml:space="preserve"
   inkscape:version="1.2.2 (732a01da63, 2022-12-09)"
   sodipodi:docname="harisburg.svg"
   xmlns:inkscape="http://www.inkscape.org/namespaces/inkscape"
   xmlns:sodipodi="http://sodipodi.sourceforge.net/DTD/sodipodi-0.dtd"
   xmlns="http://www.w3.org/2000/svg"
   xmlns:svg="http://www.w3.org/2000/svg"><sodipodi:namedview
     id="namedview7"
     pagecolor="#ffffff"
     bordercolor="#000000"
     borderopacity="0.25"
     inkscape:showpageshadow="2"
     inkscape:pageopacity="0.0"
     inkscape:pagecheckerboard="0"
     inkscape:deskcolor="#d1d1d1"
     inkscape:document-units="mm"
     showgrid="false"
     showguides="true"
     inkscape:zoom="0.17648418"
     inkscape:cx="430.63349"
     inkscape:cy="-1529.8821"
     inkscape:window-width="1366"
     inkscape:window-height="705"
     inkscape:window-x="-8"
     inkscape:window-y="-8"
     inkscape:window-maximized="1"
     inkscape:current-layer="layer1" /><defs
     id="defs2" /><g
     inkscape:label="Warstwa 1"
     inkscape:groupmode="layer"
     id="layer1"
     transform="translate(266.67783,732.57157)"><rect
       style="opacity:1;fill:#feca13;fill-opacity:1;stroke-width:0.0145521"
       id="rect35060"
       width="790.82916"
       height="592.35852"
       x="-266.67783"
       y="-732.57159" /><rect
       style="opacity:1;fill:#191993;fill-opacity:1;stroke-width:0.0145521"
       id="rect35062"
       width="719.57465"
       height="523.67969"
       x="-229.64792"
       y="-695.56714" /><path
       fill="#032d61"
       stroke="none"
       d="m 21.719909,-621.60941 25.9164,57.78628 h -61.3392 l 71.7367,214.25956 H 199.4397 l 71.7367,-214.25956 h -61.3393 l 25.9165,-57.78628 z"
       id="path37335-7"
       style="fill:#ffffff;fill-opacity:1;stroke:#e5072c;stroke-width:16.688;stroke-dasharray:none;stroke-opacity:1;paint-order:markers fill stroke" /><path
       style="fill:#feca13;fill-opacity:1;stroke-width:1.0044"
       d="m 84.829075,-243.73081 c -2.256,-0.74815 -5.4874,-2.07677 -7.1808,-2.95249 -2.7064,-1.39953 -3.2277,-1.4131 -4.3075,-0.11206 -0.6756,0.81407 -2.642,1.48037 -4.3697,1.48064 l -3.1413,5.1e-4 0.3043,-9.29118 c 0.1674,-5.11015 0.4594,-9.77087 0.6491,-10.35717 0.1909,-0.5905 1.901,-0.88429 3.8337,-0.65865 3.0479,0.35582 3.6349,0.89399 4.6422,4.25625 1.4019,4.679 5.8113,8.58287 11.3916,10.08548 7.0951,1.91051 12.8264,-0.19842 12.8264,-4.71965 0,-2.68624 -4.3813,-5.89469 -9.5012,-6.95782 -3.9217,-0.81433 -14.3185,-5.29703 -17.7963,-7.6731 -5.6425,-3.85507 -6.2504,-15.7352 -1.0516,-20.55324 5.0942,-4.72119 8.5493,-5.66737 18.7473,-5.13394 7.3789,0.38597 10.173505,0.97164 13.014705,2.72758 3.163,1.95487 3.6947,2.03631 4.2276,0.64752 0.3968,-1.03399 1.8493,-1.58855 4.1606,-1.58855 h 3.551 l -0.6452,6.17371 c -0.3549,3.39555 -0.6453,7.71664 -0.6453,9.60241 0,3.32466 -0.1097,3.41922 -3.6152,3.11696 -3.1611,-0.27258 -3.7739,-0.77587 -4.8792,-4.00719 -2.036,-5.95234 -5.159405,-8.25549 -12.598005,-9.28958 -5.709,-0.79368 -9.4231,0.96444 -9.854,4.66461 -0.3762,3.23022 1.2925,4.20454 14.3738,8.39258 7.325405,2.34523 9.849105,3.70301 13.308305,7.15981 3.919,3.91627 4.2687,4.69019 4.2687,9.4467 0,6.18708 -2.5356,10.86687 -7.5754,13.98165 -4.3863,2.71086 -16.163305,3.53978 -22.138605,1.55821 z m 34.551005,-2.03834 c -0.3892,-3.33343 -0.2676,-3.47866 3.1544,-3.76649 l 3.5592,-0.29937 0.2776,-9.54177 c 0.1527,-5.24798 -0.073,-13.38359 -0.5022,-18.07915 l -0.7798,-8.53738 -3.7665,-0.31173 c -3.5268,-0.29188 -3.7665,-0.52226 -3.7665,-3.61911 v -3.30738 l 7.6845,-0.64957 c 13.5735,-1.14739 28.7718,-0.75109 34.3139,0.89475 6.8962,2.04794 9.2258,4.65232 9.2258,10.31379 0,3.82256 -0.5446,4.99318 -3.8702,8.31874 l -3.8701,3.87018 3.3511,1.10595 c 4.7732,1.57532 7.4024,5.72747 7.4024,11.69016 0,5.87903 -1.9303,8.99068 -6.9109,11.14018 -4.0042,1.7281 -25.3891,4.12786 -37.4238,4.19958 l -7.6742,0.0457 -0.4047,-3.46712 z m 34.3446,-7.08826 c 2.2834,-2.06641 2.7924,-9.34152 0.7934,-11.34048 -0.6629,-0.6629 -3.8268,-1.20528 -7.0308,-1.20528 h -5.8255 v 7.66077 7.66077 l 5.0322,-0.48353 c 2.8481,-0.27366 5.8996,-1.26854 7.0307,-2.29225 z m -0.7634,-22.69729 c 2.2948,-2.77278 2.2412,-7.17873 -0.1134,-9.30954 -1.029,-0.93131 -4.2643,-1.97673 -7.1895,-2.32317 l -5.3184,-0.62989 0.6522,5.43179 c 0.3587,2.98748 0.6561,6.51017 0.6609,7.82819 0.01,2.27763 0.2452,2.36494 4.7796,1.76141 3.0705,-0.40869 5.3973,-1.39193 6.5286,-2.75879 z m 35.4858,27.36704 c -6.3342,-3.71797 -7.4342,-6.81544 -9.9698,-28.07283 -1.3044,-10.9357 -2.2484,-12.63897 -6.4241,-11.59093 -1.9822,0.49749 -2.2683,0.18417 -2.2683,-2.48428 0,-2.99927 0.1384,-3.08248 7.7841,-4.67971 4.2812,-0.89438 9.6791,-2.05515 11.9953,-2.57951 6.7171,-1.52064 9.3481,-1.2467 9.3481,0.97329 0,1.05966 0.2744,2.64159 0.6097,3.51539 0.4865,1.26777 -0.1223,1.58875 -3.0132,1.58875 h -3.6228 v 7.59226 l 1.7592,13.34697 c 0,0 1.8424,13.1523 4.1742,14.93603 0.8797,0.67294 3.6804,1.23792 6.2238,1.25549 3.6035,0.0249 5.2401,-0.53886 7.4146,-2.55414 2.5585,-2.37113 2.7409,-3.01812 2.1949,-7.78408 -0.3276,-2.85889 -0.8135,-6.32794 -1.0799,-7.70899 -0.2663,-1.38104 -0.9639,-6.06002 -1.5501,-10.39773 -0.5863,-4.3377 -1.3167,-8.29251 -1.6232,-8.78847 -0.3065,-0.49595 -2.0631,-0.90174 -3.9036,-0.90174 -3.0765,0 -3.3793,-0.28337 -3.7566,-3.51539 -0.2374,-2.03379 0.034,-3.5288 0.6434,-3.54721 0.5796,-0.0175 5.7805,-0.6641 11.5576,-1.43687 5.7771,-0.77277 10.8619,-1.18376 11.2995,-0.9133 0.4376,0.27047 0.7957,1.75563 0.7957,3.30037 0,2.30485 -0.5855,2.97847 -3.2643,3.75557 -2.3566,0.68363 -3.2154,1.49213 -3.0883,2.90739 0.097,1.07824 0.961,8.74011 1.9204,17.02639 0.93139,7.01876 2.81834,12.97451 -0.405,19.25123 -3.2911,6.40867 -10.3497,9.39705 -21.9683,9.30068 -6.4431,-0.0534 -9.6483,-0.54161 -11.783,-1.79463 z m -147.476105,-1.4579 c -14.0246,-1.97009 -14.8149,-2.20041 -14.8149,-4.31742 0,-4.40857 0.8892,-5.2381 5.0207,-4.68395 3.7661,0.50513 3.8976,0.41974 4.414,-2.8667 0.2928,-1.86303 1.3051,-7.90712 2.2496,-13.43131 0.9445,-5.52418 1.9094,-12.19087 2.1442,-14.81486 0.3986,-4.45418 0.2705,-4.77191 -1.9299,-4.78626 -3.888,-0.0254 -4.9611,-1.27579 -4.2303,-4.92963 0.635,-3.17501 0.8037,-3.2786 4.2805,-2.6282 4.5743,0.85571 15.0917,2.38245 21.9496,3.18629 5.5013,0.64482 5.9569,1.23404 4.6682,6.03709 -0.4951,1.84505 -1.1192,2.07974 -4.3708,1.6436 l -3.7933,-0.50879 -1.1937,6.89378 c -0.6565,3.79159 -1.586,8.70171 -2.0655,10.91138 -0.4795,2.20967 -1.1913,7.11888 -1.5816,10.90936 -0.7654,7.43173 -0.1676,8.63047 4.3191,8.66101 1.5529,0.0105 2.2599,0.61817 2.2599,1.94202 0,2.42635 -1.0162,5.14193 -1.8651,4.98392 -0.3552,-0.0661 -7.3125,-1.05671 -15.4607,-2.20133 z m -37.5136994,-5.38628 c -3.69570012,-1.8436 -6.4287001,-6.07943 -6.4287001,-9.96364 0,-1.53877 0.5435,-5.42917 1.2078,-8.64533 1.01749998,-4.92609 0.97789998,-6.06204 -0.2511,-7.20855 -1.3426,-1.25252 -10.0677005,-3.90067 -10.7160005,-3.25242 -0.1553,0.1553 -0.7641,2.50511 -1.3529,5.2218 -2.416,11.14744 -2.5387,10.26122 1.5262,11.0238 2.6593005,0.49887 3.5241005,1.09695 3.1177005,2.15604 -0.3094,0.80611 -0.5625005,2.33266 -0.5625005,3.39232 0,2.59211 -1.3004,2.49581 -16.3748,-1.21258 l -12.8593,-3.16349 0.3044,-3.12613 c 0.2703,-2.77557 0.6607,-3.12612 3.4816,-3.12612 1.7474,0 3.4856,-0.30691 3.8626,-0.68202 0.377,-0.37511 1.5461,-3.87795 2.5981,-7.78408 1.052,-3.90613 2.8544,-10.37891 4.0054,-14.38394 3.6179,-12.58933 3.6183,-12.56787 -0.2293,-13.58269 -3.0977,-0.81706 -3.3422,-1.16648 -3.0258,-4.32481 0.1893,-1.88977 0.4446,-3.54061 0.5674,-3.66854 0.6381,-0.66502 40.385401,9.95169 43.008101,11.48769 6.425799,3.76337 8.550399,9.72093 5.8185,16.31616 -1.3379,3.23 -5.8406,6.07606 -9.6129,6.07606 H 8.7879756 l 2.7793004,2.5757 c 2.9538,2.73755 2.9723,3.05936 0.9082,15.85153 -0.5421,3.35995 -0.3867,3.81791 1.1921,3.51386 1.0732,-0.20668 2.1669,-1.70578 2.675,-3.6665 0.7305,-2.81911 1.1922,-3.21645 3.0766,-2.64767 3.620999,1.09294 3.910699,1.94439 2.154499,6.33349 -3.018099,7.54297 -10.577299,10.25098 -18.1163994,6.49006 z m 1.0325,-36.0552 c 2.1203,-2.12026 2.0161,-7.76499 -0.1793,-9.71748 -2.0242,-1.80025 -10.0231001,-4.37687 -10.8916001,-3.50843 -0.7952,0.79526 -2.5687,7.70666 -2.7617,10.76304 -0.1264,2.00097 0.4321,2.61606 2.856,3.14546 5.3851,1.17611 9.3655001,0.92859 10.9766001,-0.68259 z m 239.2491844,35.47675 c -1.04081,-3.88376 -0.72116,-4.59193 2.38013,-5.27309 1.65726,-0.36399 3.01319,-1.28181 3.01319,-2.0396 0,-1.62975 -2.21579,-10.17192 -4.29084,-16.54175 -0.80982,-2.48588 -2.26766,-7.23166 -3.23967,-10.54617 -0.97201,-3.31451 -2.0664,-6.36099 -2.43198,-6.76996 -0.36557,-0.40897 -2.1093,-0.32928 -3.87493,0.1771 -3.54398,1.01639 -3.72258,0.88373 -4.65088,-3.45316 l -0.6455,-3.01524 12.32902,-3.1325 c 6.78093,-1.72287 15.04084,-3.91987 18.35535,-4.88222 3.31451,-0.96235 8.92284,-1.73141 12.46296,-1.70903 5.77586,0.0365 6.74379,0.34791 9.42915,3.03327 2.27331,2.27331 3.10195,4.16166 3.44767,7.85677 0.41274,4.4114 0.16666,5.13828 -2.64366,7.80863 l -3.09876,2.94445 3.76068,2.08999 c 3.1777,1.766 4.09878,3.10013 5.94165,8.60612 1.30078,3.88637 2.82208,6.64743 3.76952,6.84147 2.12309,0.4348 2.8952,-1.89462 1.68398,-5.08041 -0.87931,-2.31274 -0.70546,-2.66063 1.62142,-3.24464 3.3187,-0.83294 4.26824,0.628 4.2881,6.59756 0.0117,3.49685 -0.56957,5.25538 -2.3839,7.21308 -2.87151,3.09841 -9.62881,5.12088 -13.94332,4.17326 -3.99767,-0.87805 -6.11756,-3.50572 -8.86508,-10.98858 -3.08272,-8.39578 -3.6931,-8.8952 -9.83875,-8.04996 -2.81997,0.38785 -5.36333,1.08722 -5.65192,1.55416 -0.28859,0.46696 0.54415,3.92745 1.85053,7.68999 l 2.37524,6.84099 3.89589,0.0657 c 3.51342,0.0593 3.95718,0.36543 4.52038,3.11911 0.62118,3.03725 0.58648,3.06485 -6.54688,5.20741 -3.94425,1.18469 -7.82863,2.16078 -8.63193,2.1691 -0.80331,0.008 -3.26847,0.66644 -5.47815,1.4625 -5.87139,2.11525 -8.19844,1.92604 -8.90871,-0.72433 z m 20.85742,-34.73223 c 6.64878,-2.26744 8.15485,-4.64419 5.85851,-9.24537 -1.68786,-3.38198 -1.89741,-3.47704 -7.42684,-3.36926 -8.93361,0.17413 -8.90432,0.14129 -6.9952,7.84308 0.90024,3.63177 2.08879,6.56846 2.64121,6.52597 0.55241,-0.0425 3.21746,-0.83198 5.92232,-1.75442 z m -319.984905,18.87673 c -7.1685,-3.78618 -8.6853,-9.87092 -4.7444,-19.03186 1.1538,-2.6822 1.9448,-5.70385 1.7577,-6.71477 -0.4016,-2.16955 -9.6183,-7.05196 -10.839,-5.74177 -0.4563,0.48978 -1.8657,3.77443 -3.132,7.2992 -2.2386,6.23159 -2.2502,6.44668 -0.4212,7.78408 1.0345,0.75647 2.4725,1.3754 3.1956,1.3754 0.723,0 1.3146,0.43072 1.3146,0.95714 0,1.42162 -2.2393,6.07372 -2.9233,6.07314 -0.722,-6.2e-4 -10.5022,-3.67874 -14.6537,-5.51092 -1.6572,-0.73142 -5.190699,-2.12356 -7.852099,-3.09367 -4.4289,-1.61431 -4.7847,-1.98416 -4.1977,-4.36343 0.9159,-3.71208 1.8299,-4.31434 4.8215,-3.17693 3.3712,1.2817 5.244499,-0.43958 6.799399,-6.24758 0.6219,-2.32292 1.7454,-5.35344 2.4967,-6.73448 4.0104,-7.37176 8.3599,-18.22374 7.8435,-19.56952 -0.3251,-0.84709 -1.6711,-1.81125 -2.9913,-2.14258 -2.6908,-0.67536 -2.8247,-1.14614 -1.395,-4.90648 1.2253,-3.22277 0.2775,-3.44382 22.3214,5.20613 19.4893,7.64752 23.7215,10.58821 24.5771,17.07684 0.9818,7.44649 -4.5911,13.37518 -12.5725,13.37518 h -2.5362 l 2.1839,2.32463 c 2.7141,2.88911 2.7345,5.14379 0.1164,12.91529 -1.5169,4.50298 -1.7699,6.43337 -0.9501,7.25019 0.8184,0.81546 1.634,0.44157 3.0494,-1.39777 1.0628,-1.38104 1.9423,-3.07596 1.9546,-3.76649 0.029,-1.60488 1.1832,-1.59476 3.405,0.0298 1.4823,1.08389 1.5811,1.75299 0.6303,4.26869 -0.6202,1.64084 -2.3133,4.22628 -3.7626,5.74543 -3.2033,3.35784 -8.0123,3.61335 -13.496,0.71706 z m 5.7126,-39.37525 c 2.5692,-4.80291 1.6509,-6.43393 -5.5875,-9.92452 l -5.4571,-2.63153 -2.0482,4.8453 c -1.1265,2.66492 -2.3703,5.16738 -2.764,5.56103 -1.828,1.82803 0.9062,4.03088 6.8173,5.49232 5.1512,1.27358 6.9202,0.61944 9.0395,-3.3426 z m 359.574235,32.42411 c -5.62004,-2.55083 -9.93568,-7.45044 -13.51023,-15.3384 -3.49229,-7.70645 -3.9445,-13.94992 -1.51634,-20.93547 2.02707,-5.83168 5.23321,-9.35584 11.72634,-12.88952 4.47621,-2.43602 14.4884,-4.95235 17.11069,-4.30035 0.41432,0.10301 0.7533,-0.40696 0.7533,-1.13328 0,-0.72631 1.65208,-2.10839 3.6713,-3.07129 2.96108,-1.41204 3.83248,-1.4966 4.50441,-0.43713 0.45821,0.72248 0.84003,1.66544 0.84849,2.09548 0.008,0.43003 1.5973,4.11546 3.53076,8.18985 1.93347,4.07439 3.51539,7.64231 3.51539,7.92871 0,0.2864 -1.62594,1.05733 -3.6132,1.71319 -3.49814,1.15449 -3.70635,1.07948 -6.53755,-2.35526 -4.63871,-5.62757 -13.17909,-6.18806 -18.54299,-1.21696 -2.1774,2.01794 -2.58606,3.27382 -2.58606,7.94747 0,6.74063 4.49073,16.94751 9.78633,22.24309 2.91979,2.9198 4.19585,3.48129 7.91158,3.48129 3.21198,0 5.19083,-0.65418 7.19588,-2.37884 2.61549,-2.24976 2.70188,-2.59148 1.59174,-6.29677 -0.64561,-2.15485 -1.78469,-4.7533 -2.53128,-5.77433 -1.26181,-1.72563 -1.57103,-1.74594 -4.38982,-0.28829 -3.02423,1.5639 -3.03687,1.55874 -4.69437,-1.91707 -1.62423,-3.40606 -1.61074,-3.50502 0.59421,-4.35885 1.2409,-0.48051 7.1108,-2.95457 13.04422,-5.49791 5.93343,-2.54334 11.00659,-4.62425 11.27368,-4.62425 0.51434,0 3.5504,5.54014 3.5504,6.4787 0,0.30365 -0.59158,0.55208 -1.31462,0.55208 -0.72305,0 -2.0654,0.56498 -2.983,1.2555 -1.48565,1.11799 -1.51206,1.58552 -0.24122,4.26869 2.85373,6.02514 6.54764,14.44691 6.54764,14.92803 0,0.27115 -1.4006,1.1917 -3.11242,2.04568 -2.82184,1.40772 -3.26211,1.40298 -4.71583,-0.0507 -1.46827,-1.46827 -1.78317,-1.40248 -3.73651,0.78078 -8.91916,9.96898 -22.69482,13.6929 -33.13092,8.95617 z m 57.93815,-9.72057 c -0.65194,-1.16495 -0.37464,-2.18627 0.95449,-3.51539 1.03036,-1.03037 1.87339,-2.79325 1.87339,-3.91753 0,-1.74552 -0.29899,-1.88411 -2.04673,-0.94875 -2.86777,1.53478 -5.74628,0.34824 -7.53185,-3.10468 -2.16913,-4.19464 0.1311,-8.61242 4.95553,-9.51749 4.42181,-0.82953 7.44313,0.84599 9.22787,5.11747 2.48392,5.94486 1.66531,10.25989 -2.89662,15.26847 -2.45044,2.69036 -3.3107,2.80754 -4.53608,0.6179 z m -485.35398,-12.09146 c -6.8805,-4.16259 -12.6564,-7.7052 -12.8353,-7.87248 -0.1788,-0.16727 0.3811,-1.66992 1.2444,-3.33923 1.5441,-2.98609 1.6193,-3.01024 4.6564,-1.49514 1.6978,0.84698 3.3069,1.32 3.5758,1.05116 0.2688,-0.26884 0.5796,-2.46289 0.6907,-4.87568 0.1666,-3.62012 -0.1035,-4.36281 -1.545,-4.24918 -3.0007,-1.85662 -5.79769,-4.1971 -9.5907,-6.48818 l -3.3708,2.91858 -3.3708,2.91859 2.8141,2.34461 c 2.7875,2.32255 2.7976,2.37312 1.0756,5.37357 l -1.7383,3.02894 -6.0977,-3.43653 c -3.3537,-1.89009 -7.9546,-4.60651 -10.2242,-6.03648 -4.1236,-2.5981 -4.1254,-2.60199 -2.511,-5.44843 1.0593,-1.86776 2.1343,-2.6358 3.1221,-2.23076 0.8287,0.33974 2.1978,0.81903 3.0425,1.06509 9.78189,-8.10159 20.8122,-15.497 31.4859,-23.02312 3.6669,-2.62398 7.0843,-4.77088 7.5943,-4.77088 1.6123,0 13.097096,7.48721 13.095596,8.53737 -7e-4,0.55242 -1.1543,5.07221 -2.5635,10.04397 -4.104396,14.48089 -7.456896,28.5487 -7.456896,31.2904 0,1.39899 0.9871,3.33645 2.2005,4.31898 2.0642,1.67152 2.1081,1.97266 0.7085,4.86253 l -1.492,3.08065 z m 1.3645,-29.70672 c 1.1425,-4.6997 2.4938,-9.35747 3.2471,-11.19251 0.4853,-1.18214 -1.4663,-0.0926 -5.1573,2.87917 -4.9371,3.97509 -6.8312,6.0929 -6.8312,6.0929 l 7.5557,4.40104 c 0.35,0.0436 0.8835,-0.93766 1.1857,-2.1806 z m 498.61903,21.80431 c -2.33164,-3.11117 -2.22477,-3.88905 0.75329,-5.48286 1.38105,-0.73911 2.511,-1.77046 2.511,-2.29189 0,-0.52142 -4.63278,-7.19986 -10.29507,-14.84097 -10.62028,-14.33179 -12.32977,-15.6548 -15.97052,-12.35996 -1.69409,1.53312 -1.95009,1.48253 -3.81216,-0.7533 -2.88615,-3.46544 -2.57652,-4.41593 2.38579,-7.32405 0,0 17.45649,-13.14691 25.87224,-17.36394 2.93701,-1.53572 7.37743,-2.86447 10.41401,-3.11629 5.01611,-0.41597 5.51236,-0.23513 9.46041,3.44757 3.23614,3.01864 4.29381,4.83495 4.73622,8.1334 0.96786,7.2159 -2.48734,12.25903 -13.54423,19.76889 -2.37198,1.61104 -4.48651,3.21043 -4.69897,3.5542 -0.21246,0.34377 1.40984,2.98046 3.6051,5.8593 4.08427,5.35608 6.67287,6.43762 8.92193,3.72768 1.8192,-2.192 3.55892,-1.85402 5.47002,1.06269 1.63419,2.49409 1.60265,2.6337 -1.07763,4.77088 -1.51859,1.21088 -4.21326,3.10556 -5.98814,4.2104 -1.77489,1.10484 -5.87075,3.83331 -9.10193,6.06326 -3.23118,2.22996 -6.32685,4.33029 -6.87927,4.66741 -0.55242,0.33711 -1.79536,-0.44248 -2.76209,-1.73242 z m 7.495,-37.64704 c 2.0262,-1.67017 3.94861,-3.87037 4.27201,-4.88933 0.85895,-2.70633 -0.99992,-6.78438 -3.98364,-8.73938 -2.80806,-1.83992 -4.42548,-1.40801 -10.7875,2.88065 l -2.75302,1.85583 4.20625,5.96444 c 2.31342,3.28045 4.46626,5.96445 4.78406,5.96445 0.31781,0 2.23564,-1.3665 4.26184,-3.03666 z m -557.67763,15.25418 c -1.3943,-1.47166 -4.9927,-4.70965 -7.9966,-7.19553 -3.0038,-2.48588 -6.5312,-5.43083 -7.8386,-6.54433 l -2.377,-2.02454 2.2015,-2.79874 c 2.013,-2.55913 2.3489,-2.66527 3.9241,-1.23975 2.6369,2.38631 3.4751,1.99777 8.8916,-4.12154 l 5.0282,-5.68053 -5.3566,-4.36344 c -2.9461,-2.3999 -5.6324,-4.36344 -5.9696,-4.36344 -1.0935,0 -10.5709,9.28242 -10.5709,10.35342 0,0.57143 0.7477,1.86509 1.6614,2.87479 1.5557,1.719 1.514,1.96369 -0.6559,3.84557 -1.2745,1.10537 -2.5102,2.00976 -2.7461,2.00976 -0.591,0 -17.6275,-14.49457 -19.0402,-16.19923 -0.8752,-1.05608 -0.7001,-1.9226 0.7499,-3.7117 l 1.8916,-2.33397 3.5348,2.69616 3.5349,2.69617 3.2749,-3.47352 c 1.8012,-1.91044 4.7341,-5.49479 6.5176,-7.96522 1.7834,-2.47043 5.5122,-7.08535 8.2862,-10.25538 2.7741,-3.17002 5.0437,-6.33656 5.0437,-7.03675 0,-0.70018 -1.0794,-2.28709 -2.3986,-3.52645 l -2.3986,-2.25338 2.4264,-2.61816 2.4264,-2.61817 4.1771,3.94317 c 2.2974,2.16874 4.7139,4.39515 5.37,4.94757 0.6561,0.55241 3.9792,3.44251 7.3846,6.42243 l 6.1917,5.41803 -2.2353,2.37935 c -1.5097,1.60696 -2.5657,2.04898 -3.253,1.36164 -2.1386,-2.13862 -5.4003,-0.93928 -9.4012,3.45683 l -4.0721,4.47453 5.2858,3.99085 5.2858,3.99085 4.1561,-4.23471 c 3.8993,-3.97314 5.4193,-7.67406 3.1516,-7.67406 -1.8447,0 -1.033,-1.94371 1.5066,-3.60775 2.7468,-1.79976 3.8881,-1.37423 9.5418,3.55777 1.3811,1.20475 4.8777,4.24659 7.7704,6.75965 l 5.2594,4.56919 -2.0722,2.91019 -2.0722,2.91019 -2.5694,-2.02104 c -1.4131,-1.11157 -3.1163,-2.02104 -3.7848,-2.02104 0,0 -8.81454,8.02517 -13.1887,12.83258 -4.3571,4.81908 -8.7133,9.63815 -9.6806,10.70905 -2.3359,2.58616 -2.2262,3.44381 0.7695,6.01796 l 2.5282,2.17239 -2.7793,2.62901 -2.7792,2.62901 z m 589.02962,-4.09179 -3.04583,-2.72145 2.31292,-1.74463 c 1.2721,-0.95955 2.3129,-2.31533 2.3129,-3.01285 0,-0.69752 -4.53894,-10.18014 -10.08654,-21.07248 -5.82975,-11.44634 -9.77661,-20.32271 -9.35215,-21.03273 0,0 5.90818,-5.54883 10.53426,-10.17491 l 15.24948,7.84428 c 8.38722,4.31436 17.84982,9.18192 21.028,10.81681 l 5.77851,2.97251 2.86656,-2.04117 2.86657,-2.04117 2.39444,2.54876 2.39444,2.54877 -5.1421,4.90522 c 0,0 -7.4746,6.68167 -11.37882,10.53268 l -4.48585,4.46676 -2.81664,-2.6985 -2.81663,-2.69851 2.49491,-2.49491 2.4949,-2.4949 -4.07204,-2.31296 -4.07205,-2.31296 -5.34728,5.10345 -5.34728,5.10345 2.10451,3.67857 c 1.15749,2.02321 2.25062,3.86867 2.4292,4.10102 0.17858,0.23235 1.46521,-0.64899 2.85916,-1.95854 l 2.53446,-2.381 2.73467,2.76756 c 2.68548,2.7178 2.69901,2.79408 0.75224,4.24239 -1.09033,0.81115 -4.94132,4.35664 -8.55775,7.87885 l -6.57534,6.40404 z m 5.44237,-32.33222 c 1.84809,-1.68039 3.20403,-3.1955 3.01319,-3.36691 -1.33916,-1.20276 -13.20771,-6.60514 -13.61535,-6.1975 -0.28058,0.28058 0.37214,1.7791 1.45047,3.33006 1.07834,1.55096 2.59391,4.28885 3.36795,6.08421 0.77403,1.79536 1.63598,3.25104 1.91545,3.23485 0.27946,-0.0162 2.02019,-1.40431 3.86829,-3.08471 z"
       id="path40748"
       sodipodi:nodetypes="sssscccscsssscssssccsssssssssscscsccsscsssccssssccccsscccscccscscscssssssssscccssscccsssssssscccssssscssssssssccsccsssssssssscsscsssscsscsssccsssssscscsscsssssssccsssssscsssssssssssscssscssssssssscscscsssssccsscsssscscccsscssccccscscscsssssssscssssssssssssssssssssssssssssssssssscscscccccccscssssccsccssscccsscccssssssccssssssssssssssssscsssssscssscssscsssscccssssscccssscssccccssssscccsccsscccsccsssccssccccccccccccccccssscsssccsssssss" /><g
       id="g41030"
       transform="matrix(0.70755456,0,0,0.70755456,-207.41694,-596.90569)"
       style="fill:#191993;fill-opacity:1"><g
         id="g24797-7"
         transform="translate(-606.70469,255.96972)"
         style="fill:#191993;fill-opacity:1"><rect
           style="opacity:1;fill:#191993;fill-opacity:1;stroke-width:0.119112"
           id="rect17994-0"
           width="240.42844"
           height="3.588604"
           x="961.58276"
           y="-59.211964" /><rect
           style="opacity:1;fill:#191993;fill-opacity:1;stroke-width:0.118871"
           id="rect17994-3-3"
           width="239.45769"
           height="3.588604"
           x="961.58276"
           y="-26.914543" /><rect
           style="opacity:1;fill:#191993;fill-opacity:1;stroke-width:0.118871"
           id="rect17994-6-9"
           width="239.45769"
           height="3.588604"
           x="961.58276"
           y="-34.091751" /><rect
           style="opacity:1;fill:#191993;fill-opacity:1;stroke-width:0.118871"
           id="rect17994-6-0-8"
           width="239.45769"
           height="3.588604"
           x="961.58276"
           y="-41.268959" /><rect
           style="opacity:1;fill:#191993;fill-opacity:1;stroke-width:0.0460178"
           id="rect18197-2"
           width="3.5885999"
           height="35.886028"
           x="1198.4226"
           y="-59.211967" /><rect
           style="opacity:1;fill:#191993;fill-opacity:1;stroke-width:0.0428916"
           id="rect20347-8"
           width="3.5894125"
           height="35.886044"
           x="961.5827"
           y="-59.211971" /><rect
           style="opacity:1;fill:#191993;fill-opacity:1;stroke-width:0.0234927"
           id="rect20347-3-8"
           width="3.5894125"
           height="10.7658"
           x="972.35815"
           y="-48.446159" /><rect
           style="opacity:1;fill:#191993;fill-opacity:1;stroke-width:0.0234927"
           id="rect20347-3-9-7"
           width="3.5894125"
           height="10.7658"
           x="983.1264"
           y="-48.446159" /><rect
           style="opacity:1;fill:#191993;fill-opacity:1;stroke-width:0.0234927"
           id="rect20347-3-3-5"
           width="3.5894125"
           height="10.7658"
           x="990.30432"
           y="-48.446159" /><rect
           style="opacity:1;fill:#191993;fill-opacity:1;stroke-width:0.0234927"
           id="rect20347-3-35-3"
           width="3.5894125"
           height="10.7658"
           x="1001.071"
           y="-48.446159" /><rect
           style="opacity:1;fill:#191993;fill-opacity:1;stroke-width:0.0234927"
           id="rect20347-3-35-4-9"
           width="3.5894125"
           height="10.7658"
           x="1040.5457"
           y="-48.446159" /><rect
           style="opacity:1;fill:#191993;fill-opacity:1;stroke-width:0.0234927"
           id="rect20347-3-35-46-9"
           width="3.5894125"
           height="10.7658"
           x="1051.3107"
           y="-48.446159" /><rect
           style="opacity:1;fill:#191993;fill-opacity:1;stroke-width:0.0234927"
           id="rect20347-3-35-49-6"
           width="3.5894125"
           height="10.7658"
           x="1040.5457"
           y="-26.914549" /><rect
           style="opacity:1;fill:#191993;fill-opacity:1;stroke-width:0.0234927"
           id="rect20347-3-35-9-8"
           width="3.5894125"
           height="10.7658"
           x="1051.3108"
           y="-26.914549" /><rect
           style="opacity:1;fill:#191993;fill-opacity:1;stroke-width:0.0234927"
           id="rect20347-3-35-468-5"
           width="3.5894125"
           height="10.7658"
           x="1058.4886"
           y="-26.914549" /><rect
           style="opacity:1;fill:#191993;fill-opacity:1;stroke-width:0.0234927"
           id="rect20347-3-35-6-4"
           width="3.5894125"
           height="10.7658"
           x="1069.2544"
           y="-26.914549" /><rect
           style="opacity:1;fill:#191993;fill-opacity:1;stroke-width:0.0234927"
           id="rect20347-3-35-0-6"
           width="3.5894125"
           height="10.7658"
           x="1058.4878"
           y="-48.446159" /><rect
           style="opacity:1;fill:#191993;fill-opacity:1;stroke-width:0.0234927"
           id="rect20347-3-0-82"
           width="3.5894125"
           height="10.7658"
           x="972.35815"
           y="-26.914549" /><rect
           style="opacity:1;fill:#191993;fill-opacity:1;stroke-width:0.0234927"
           id="rect20347-3-0-0-0"
           width="3.5894125"
           height="10.7658"
           x="1187.656"
           y="-26.914549" /><rect
           style="opacity:1;fill:#191993;fill-opacity:1;stroke-width:0.0234927"
           id="rect20347-3-0-9-7"
           width="3.5894125"
           height="10.7658"
           x="1187.656"
           y="-48.446159" /><rect
           style="opacity:1;fill:#191993;fill-opacity:1;stroke-width:0.0234927"
           id="rect20347-3-0-2-5"
           width="3.5894125"
           height="10.7658"
           x="1176.8903"
           y="-48.446159" /><rect
           style="opacity:1;fill:#191993;fill-opacity:1;stroke-width:0.0234927"
           id="rect20347-3-0-1-5"
           width="3.5894125"
           height="10.7658"
           x="1176.8903"
           y="-26.914549" /><rect
           style="opacity:1;fill:#191993;fill-opacity:1;stroke-width:0.0234927"
           id="rect20347-3-0-4-5"
           width="3.5894125"
           height="10.7658"
           x="1169.7352"
           y="-26.914549" /><rect
           style="opacity:1;fill:#191993;fill-opacity:1;stroke-width:0.0234927"
           id="rect20347-3-0-09-6"
           width="3.5894125"
           height="10.7658"
           x="1158.9686"
           y="-26.914549" /><rect
           style="opacity:1;fill:#191993;fill-opacity:1;stroke-width:0.0234927"
           id="rect20347-3-0-6-4"
           width="3.5894125"
           height="10.7658"
           x="1169.7352"
           y="-48.446159" /><rect
           style="opacity:1;fill:#191993;fill-opacity:1;stroke-width:0.0234927"
           id="rect20347-3-0-23-7"
           width="3.5894125"
           height="10.7658"
           x="1158.9686"
           y="-48.446159" /><rect
           style="opacity:1;fill:#191993;fill-opacity:1;stroke-width:0.0234927"
           id="rect20347-3-0-7-4"
           width="3.5894125"
           height="10.7658"
           x="1119.4948"
           y="-26.914549" /><rect
           style="opacity:1;fill:#191993;fill-opacity:1;stroke-width:0.0234927"
           id="rect20347-3-0-12-5"
           width="3.5894125"
           height="10.7658"
           x="1119.4948"
           y="-48.446159" /><rect
           style="opacity:1;fill:#191993;fill-opacity:1;stroke-width:0.0234927"
           id="rect20347-3-0-8-4"
           width="3.5894125"
           height="10.7658"
           x="1108.7076"
           y="-48.446159" /><rect
           style="opacity:1;fill:#191993;fill-opacity:1;stroke-width:0.0234927"
           id="rect20347-3-0-65-3"
           width="3.5894125"
           height="10.7658"
           x="1108.7076"
           y="-26.91452" /><rect
           style="opacity:1;fill:#191993;fill-opacity:1;stroke-width:0.0234927"
           id="rect20347-3-0-81-1"
           width="3.5894125"
           height="10.7658"
           x="1101.5518"
           y="-26.914549" /><rect
           style="opacity:1;fill:#191993;fill-opacity:1;stroke-width:0.0234927"
           id="rect20347-3-0-67-0"
           width="3.5894125"
           height="10.7658"
           x="1090.7852"
           y="-26.91452" /><rect
           style="opacity:1;fill:#191993;fill-opacity:1;stroke-width:0.0234927"
           id="rect20347-3-0-19-4"
           width="3.5894125"
           height="10.7658"
           x="1101.551"
           y="-48.446159" /><rect
           style="opacity:1;fill:#191993;fill-opacity:1;stroke-width:0.0234927"
           id="rect20347-3-4-4"
           width="3.5894125"
           height="10.7658"
           x="983.1264"
           y="-26.914549" /><rect
           style="opacity:1;fill:#191993;fill-opacity:1;stroke-width:0.0234927"
           id="rect20347-3-1-7"
           width="3.5894125"
           height="10.7658"
           x="990.30524"
           y="-26.914549" /><rect
           style="opacity:1;fill:#191993;fill-opacity:1;stroke-width:0.0234927"
           id="rect20347-3-7-6"
           width="3.5894125"
           height="10.7658"
           x="1001.0702"
           y="-26.914549" /><rect
           style="opacity:1;fill:#191993;fill-opacity:1;stroke-width:0.0332236"
           id="rect20347-3-11-7-38"
           width="3.5894125"
           height="21.531605"
           x="1024.3965"
           y="-59.211964" /><rect
           style="opacity:1;fill:#191993;fill-opacity:1;stroke-width:0.0332236"
           id="rect20347-3-11-7-6-5"
           width="3.5894125"
           height="21.531605"
           x="1135.6431"
           y="-59.211964" /><rect
           style="opacity:1;fill:#191993;fill-opacity:1;stroke-width:0.0332236"
           id="rect20347-3-11-7-31-7"
           width="3.5894125"
           height="21.531605"
           x="1142.8203"
           y="-59.211964" /><rect
           style="opacity:1;fill:#191993;fill-opacity:1;stroke-width:0.0332236"
           id="rect20347-3-11-7-3-1"
           width="3.5894125"
           height="21.531605"
           x="1069.2535"
           y="-59.211964" /><rect
           style="opacity:1;fill:#191993;fill-opacity:1;stroke-width:0.0332236"
           id="rect20347-3-11-7-3-6-5"
           width="3.5894125"
           height="21.531605"
           x="1090.786"
           y="-59.211967" /><rect
           style="opacity:1;fill:#191993;fill-opacity:1;stroke-width:0.0332236"
           id="rect20347-3-11-7-0-8"
           width="3.5894125"
           height="21.531605"
           x="1017.2407"
           y="-59.211964" /><rect
           style="opacity:1;fill:#191993;fill-opacity:1;stroke-width:0.0145521"
           id="rect20883-30"
           width="14.35767"
           height="3.5885999"
           x="972.35815"
           y="-48.446159" /><rect
           style="opacity:1;fill:#191993;fill-opacity:1;stroke-width:0.0145521"
           id="rect20883-2-0"
           width="14.35767"
           height="3.5885999"
           x="1040.5439"
           y="-48.446159" /><rect
           style="opacity:1;fill:#191993;fill-opacity:1;stroke-width:0.0145521"
           id="rect20883-15-6"
           width="14.35767"
           height="3.5885999"
           x="1058.4869"
           y="-48.446159" /><rect
           style="opacity:1;fill:#191993;fill-opacity:1;stroke-width:0.0145521"
           id="rect20883-5-2"
           width="14.35767"
           height="3.5885999"
           x="1090.7844"
           y="-48.446159" /><rect
           style="opacity:1;fill:#191993;fill-opacity:1;stroke-width:0.0145521"
           id="rect20883-3-5"
           width="14.35767"
           height="3.5885999"
           x="1108.7076"
           y="-48.446159" /><rect
           style="opacity:1;fill:#191993;fill-opacity:1;stroke-width:0.0145521"
           id="rect20883-23-6"
           width="14.35767"
           height="3.5885999"
           x="1090.7844"
           y="-19.73732" /><rect
           style="opacity:1;fill:#191993;fill-opacity:1;stroke-width:0.0145521"
           id="rect20883-8-2"
           width="14.35767"
           height="3.5885999"
           x="1108.7076"
           y="-19.73732" /><rect
           style="opacity:1;fill:#191993;fill-opacity:1;stroke-width:0.0145521"
           id="rect20883-7-3"
           width="14.35767"
           height="3.5885999"
           x="1058.4886"
           y="-19.73732" /><rect
           style="opacity:1;fill:#191993;fill-opacity:1;stroke-width:0.0145521"
           id="rect20883-0-3"
           width="14.35767"
           height="3.5885999"
           x="1040.5439"
           y="-19.73732" /><rect
           style="opacity:1;fill:#191993;fill-opacity:1;stroke-width:0.0145521"
           id="rect20883-49-5"
           width="14.35767"
           height="3.5885999"
           x="1158.9678"
           y="-48.446159" /><rect
           style="opacity:1;fill:#191993;fill-opacity:1;stroke-width:0.0145521"
           id="rect20883-88-4"
           width="14.35767"
           height="3.5885999"
           x="1176.8894"
           y="-48.446159" /><rect
           style="opacity:1;fill:#191993;fill-opacity:1;stroke-width:0.0145521"
           id="rect20883-83-9"
           width="14.35767"
           height="3.5885999"
           x="1176.891"
           y="-19.73732" /><rect
           style="opacity:1;fill:#191993;fill-opacity:1;stroke-width:0.0145521"
           id="rect20883-76-7"
           width="14.35767"
           height="3.5885999"
           x="1158.9694"
           y="-19.73732" /><rect
           style="opacity:1;fill:#191993;fill-opacity:1;stroke-width:0.0145521"
           id="rect20883-1-5"
           width="14.35767"
           height="3.5885999"
           x="972.35815"
           y="-19.758709" /><rect
           style="opacity:1;fill:#191993;fill-opacity:1;stroke-width:0.0145521"
           id="rect20883-9-9"
           width="14.35767"
           height="3.5885999"
           x="990.30524"
           y="-19.758709" /><rect
           style="opacity:1;fill:#191993;fill-opacity:1;stroke-width:0.0145521"
           id="rect20883-4-6"
           width="14.35767"
           height="3.5885999"
           x="990.30524"
           y="-48.446159" /><path
           style="opacity:1;fill:#191993;fill-opacity:1;stroke-width:0.0156748"
           d="m 1010.8626,-59.670839 c 2.986,-1.617448 13.2069,-4.184787 21.8386,-5.485243 37.9492,-5.717503 97.7559,-3.371652 118.1883,4.635753 1.6405,0.642927 2.0869,1.30836 2.0153,1.308365 0,0 -2.1145,-0.006 -5.4634,-0.0013 -3.0844,0.0043 -5.7803,0.0013 -5.7803,0.0013 -0.3636,0 -1.8167,-0.427227 -3.1425,-0.851866 -17.0727,-5.468869 -60.7156,-7.274817 -92.4226,-3.824454 -8.4255,0.916855 -17.1836,2.545704 -21.4015,3.980323 -0.9789,0.332967 -1.6355,0.696814 -2.7693,0.695997 l -5.9382,2.060514 -5.5293,-2.060514 c -0.8034,0.179021 -0.282,-0.138751 0.4049,-0.458843 z"
           id="path24597-9"
           sodipodi:nodetypes="cssssscssscccc" /></g><path
         style="fill:#191993;fill-opacity:1;stroke-width:0.0221112"
         d="m 365.65347,195.25387 c 0,-1.34578 0.41836,-1.59306 3.07125,-2.99971 4.05316,-2.1491 12.17224,-5.24718 18.6157,-7.10339 45.43499,-13.08874 120.18928,-13.88111 168.65418,-1.78768 10.6431,2.65576 21.6005,6.57173 26.6844,9.53644 1.6428,0.958 1.8602,1.24688 1.8602,2.47151 v 1.38671 h -3.5583 c -1.2199,0 -2.8888,0.64617 -6.7505,-1.81145 -18.2099,-11.5889 -61.4853,-17.30357 -105.96089,-16.49881 -32.4639,0.58741 -60.40949,4.48912 -79.99855,11.16921 -4.82216,1.64442 -12.00248,5.00842 -14.07851,6.31983 -2.27386,1.43638 -3.31413,0.82122 -4.84897,0.82122 h -3.69001 z"
         id="path24850-7"
         sodipodi:nodetypes="sssssscsssssscs" /><rect
         style="fill:#191993;fill-opacity:1;stroke-width:0.0306534"
         id="rect25441-80"
         width="3.5894201"
         height="44.792553"
         x="365.65341"
         y="150.45387" /><rect
         style="fill:#191993;fill-opacity:1;stroke-width:0.030696"
         id="rect25441-6-0"
         width="3.5894201"
         height="44.91716"
         x="580.94977"
         y="150.45387" /><rect
         style="fill:#191993;fill-opacity:1;stroke-width:0.030696"
         id="rect25441-5-2"
         width="3.5894201"
         height="44.91716"
         x="570.18634"
         y="147.69893" /><rect
         style="fill:#191993;fill-opacity:1;stroke-width:0.030696"
         id="rect25441-0-1"
         width="3.5894201"
         height="44.91716"
         x="559.44196"
         y="143.42146" /><rect
         style="fill:#191993;fill-opacity:1;stroke-width:0.0299885"
         id="rect25441-2-5"
         width="3.5894201"
         height="42.870415"
         x="534.32098"
         y="139.38786" /><rect
         style="fill:#191993;fill-opacity:1;stroke-width:0.0299885"
         id="rect25441-22-4"
         width="3.5894201"
         height="42.870415"
         x="509.2016"
         y="136.67177" /><rect
         style="fill:#191993;fill-opacity:1;stroke-width:0.0299885"
         id="rect25441-1-1"
         width="3.5894201"
         height="42.870415"
         x="484.08133"
         y="135.36403" /><rect
         style="fill:#191993;fill-opacity:1;stroke-width:0.0299885"
         id="rect25441-61-7"
         width="3.5894201"
         height="42.870415"
         x="462.54886"
         y="135.36403" /><rect
         style="fill:#191993;fill-opacity:1;stroke-width:0.030696"
         id="rect25441-8-3"
         width="3.5894201"
         height="44.91716"
         x="376.42166"
         y="147.31584" /><rect
         style="fill:#191993;fill-opacity:1;stroke-width:0.0300327"
         id="rect25441-3-6"
         width="3.5894201"
         height="42.997028"
         x="387.18991"
         y="145.49821" /><rect
         style="fill:#191993;fill-opacity:1;stroke-width:0.0298752"
         id="rect25441-4-5"
         width="3.5894201"
         height="42.547241"
         x="412.30844"
         y="140.11024" /><rect
         style="fill:#191993;fill-opacity:1;stroke-width:0.0301013"
         id="rect25441-9-8"
         width="3.5894201"
         height="43.193584"
         x="437.42874"
         y="136.43492" /><path
         style="fill:#191993;fill-opacity:1;stroke-width:0.0155689"
         d="m 477.79291,133.52551 c -2.0291,-0.006 -4.0817,-0.004 -6.1453,0.006 -5.503,0.0278 -11.0853,0.11543 -16.5138,0.26716 -22.0545,0.61646 -46.74209,4.04783 -67.39325,9.36687 -5.9404,1.53009 -15.45386,5.03419 -19.60914,6.34639 l -2.47788,0.78238 v 3.64577 c 0,1.86127 0.0956,3.33008 0.21239,3.26388 0.11678,-0.0661 1.23201,-0.70197 2.47788,-1.41283 8.92586,-5.09271 25.61881,-10.21229 43.8903,-13.4612 20.191,-3.59001 37.6191,-4.963 63.0045,-4.963 20.3173,0 32.90969,0.71935 49.41239,2.82153 23.3793,2.97812 47.0054,9.42139 57.8627,15.78044 0.9759,0.57149 1.8316,1.03921 1.9006,1.03921 0.069,0 0.1266,-1.51069 0.1266,-3.3569 v -3.3569 l -2.9631,-1.17926 c -17.0992,-6.80608 -38.5564,-11.27209 -68.8196,-14.32316 -7.7038,-0.77668 -20.76149,-1.22301 -34.96529,-1.26659 z"
         id="path2254-45" /><path
         style="fill:#191993;fill-opacity:1;stroke-width:0.0155689"
         d="m 477.79291,142.1994 c -2.0291,-0.006 -4.0817,-0.004 -6.1453,0.006 -5.503,0.0278 -11.0853,0.11544 -16.5138,0.26717 -22.0545,0.61647 -46.74209,4.04783 -67.39325,9.36687 -5.9404,1.53009 -15.45386,5.03419 -19.60914,6.34638 l -2.47788,0.78238 v 3.64577 c 0,1.86126 0.0956,3.33009 0.21239,3.26389 0.11679,-0.0661 1.232,-0.70197 2.47788,-1.41284 8.92586,-5.09267 25.61881,-10.21228 43.8903,-13.46119 20.191,-3.59002 37.6191,-4.963 63.0045,-4.963 20.3173,0 32.90969,0.71877 49.41239,2.82102 23.3793,2.97805 47.0054,9.42142 57.8627,15.78042 0.9758,0.57153 1.8316,1.03922 1.9006,1.03922 0.07,0 0.1266,-1.51071 0.1266,-3.3569 v -3.35639 l -2.9631,-1.17925 c -17.0993,-6.80608 -38.5564,-11.27208 -68.8196,-14.32316 -7.7038,-0.77667 -20.76149,-1.22301 -34.96529,-1.26659 z"
         id="path2254-0-5" /><path
         style="fill:#191993;fill-opacity:1;stroke-width:0.0155689"
         d="m 408.72072,159.36764 c 0,0 -9.524,1.81239 -14.3542,2.92821 v 4.66638 c 4.7228,-1.23814 9.2119,-2.25615 14.3542,-3.23805 z"
         id="path3415-7"
         sodipodi:nodetypes="ccccc" /><path
         style="fill:#191993;fill-opacity:1;stroke-width:0.0155689"
         d="m 419.48651,157.6457 v 4.21014 c 5.4835,-0.86789 8.8879,-1.3351 14.3544,-1.89283 V 155.915 c -1.5947,0.16834 -11.3113,1.28742 -14.3544,1.7307 z"
         id="path3433-2"
         sodipodi:nodetypes="ccccc" /><path
         style="fill:#191993;fill-opacity:1;stroke-width:0.0155689"
         d="m 455.13381,154.53147 c -3.792,0.10599 -6.6385,0.21871 -10.5271,0.48453 v 4.02311 c 5.1504,-0.37087 8.6488,-0.54761 14.3544,-0.7065 v -3.89498 c 3.6587,-0.0848 -3.4113,0.0823 -3.8273,0.0938 z"
         id="path3474-1"
         sodipodi:nodetypes="cccccc" /><path
         style="fill:#191993;fill-opacity:1;stroke-width:0.0155689"
         d="m 541.4839,163.64325 c 5.7913,1.10696 9.1373,1.84466 14.3694,3.23616 v -4.78238 c -5.3014,-1.22184 -14.3554,-2.80689 -14.3554,-2.80689 l -0.015,4.35311 z"
         id="path3584-0"
         sodipodi:nodetypes="cccccc" /><path
         style="fill:#191993;fill-opacity:1;stroke-width:0.0155689"
         d="m 516.3787,159.96301 c 3.0342,0.31107 5.0368,0.54462 8.284,0.95824 2.5477,0.32454 3.5336,0.44217 6.0704,0.84442 v -4.10961 c -5.1532,-0.72436 -14.3544,-1.75477 -14.3544,-1.75477 z"
         id="path3540-8"
         sodipodi:nodetypes="cscccc" /><path
         style="fill:#191993;fill-opacity:1;stroke-width:0.0155689"
         d="m 491.25851,158.30543 c 5.798,0.14851 9.16039,0.3061 14.35439,0.68933 0,0 -0.01,-3.93903 -0.01,-4.00965 -4.6724,-0.28777 -14.34419,-0.54748 -14.34419,-0.54748 z"
         id="path3496-2"
         sodipodi:nodetypes="ccccc" /><rect
         style="fill:#191993;fill-opacity:1;stroke-width:0.0273696"
         id="rect2998-10"
         width="3.5885999"
         height="20.539928"
         x="394.36624"
         y="164.51888" /><rect
         style="fill:#191993;fill-opacity:1;stroke-width:0.0273696"
         id="rect2998-9-9"
         width="3.5885999"
         height="20.539928"
         x="405.13205"
         y="162.29573" /><rect
         style="fill:#191993;fill-opacity:1;stroke-width:0.0273696"
         id="rect2998-2-0"
         width="3.5885999"
         height="20.539928"
         x="419.48636"
         y="159.05144" /><rect
         style="fill:#191993;fill-opacity:1;stroke-width:0.0273696"
         id="rect2998-7-5"
         width="3.5885999"
         height="20.539928"
         x="430.2515"
         y="157.81712" /><rect
         style="fill:#191993;fill-opacity:1;stroke-width:0.0273696"
         id="rect2998-0-1"
         width="3.5885999"
         height="20.539928"
         x="444.60684"
         y="156.58281" /><rect
         style="fill:#191993;fill-opacity:1;stroke-width:0.0273696"
         id="rect2998-79-1"
         width="3.5885999"
         height="20.539928"
         x="455.37247"
         y="156.21254" /><rect
         style="fill:#191993;fill-opacity:1;stroke-width:0.0273696"
         id="rect2998-1-4"
         width="3.5885999"
         height="20.539928"
         x="491.25858"
         y="156.21254" /><rect
         style="fill:#191993;fill-opacity:1;stroke-width:0.027477"
         id="rect2998-16-4"
         width="3.6100068"
         height="20.578625"
         x="502.00296"
         y="157.57979" /><rect
         style="fill:#191993;fill-opacity:1;stroke-width:0.0273541"
         id="rect2998-11-7"
         width="3.588577"
         height="20.51671"
         x="516.37872"
         y="158.6234" /><rect
         style="fill:#191993;fill-opacity:1;stroke-width:0.0273696"
         id="rect2998-05-2"
         width="3.5885999"
         height="20.539928"
         x="527.14545"
         y="159.52223" /><path
         id="rect4564-6-6-0"
         style="fill:#191993;fill-opacity:1;stroke-width:0.0141783"
         d="m 552.2631,165.8644 1.53421,-2.77962 -10.50564,-0.92329 1.79423,17.25777 c 3.5672,-8.6904 3.5672,-9.20364 7.1772,-13.55486 z"
         sodipodi:nodetypes="ccccc" /><rect
         style="fill:#191993;fill-opacity:1;stroke-width:0.0273696"
         id="rect2998-8-6"
         width="3.5885999"
         height="20.539928"
         x="541.49738"
         y="162.16148" /><rect
         style="fill:#191993;fill-opacity:1;stroke-width:0.0273696"
         id="rect2998-85-4"
         width="3.5885999"
         height="20.539928"
         x="552.26471"
         y="165.01537" /><path
         id="rect4564-8"
         style="fill:#191993;fill-opacity:1;stroke-width:0.0141783"
         d="m 397.95502,166.04339 8.97135,-3.74766 -1.79415,17.30252 c -3.5672,-8.6904 -3.5672,-9.20364 -7.1772,-13.55486 z"
         sodipodi:nodetypes="cccc" /><path
         id="rect4564-6-27"
         style="fill:#191993;fill-opacity:1;stroke-width:0.0141783"
         d="m 423.07431,162.6672 -2.60154,-3.61576 11.79849,-0.16602 -2.01975,17.33664 c -3.5672,-8.6904 -3.5672,-9.20364 -7.1772,-13.55486 z"
         sodipodi:nodetypes="ccccc" /><path
         id="rect4564-6-4-4"
         style="fill:#191993;fill-opacity:1;stroke-width:0.0141783"
         d="m 448.19521,158.92761 8e-4,-2.94945 8.97078,0.23438 -1.79438,16.26993 c -3.5672,-8.6904 -3.5672,-9.20364 -7.1772,-13.55486 z"
         sodipodi:nodetypes="ccccc" /><path
         id="rect4564-6-2-1"
         style="fill:#191993;fill-opacity:1;stroke-width:0.0141783"
         d="m 502.0029,158.61636 1.21105,-2.90904 -10.16105,0.50522 1.77281,15.95868 c 3.56719,-8.6904 3.56719,-9.20364 7.17719,-13.55486 z"
         sodipodi:nodetypes="ccccc" /><path
         id="rect4564-6-7-7"
         style="fill:#191993;fill-opacity:1;stroke-width:0.0141783"
         d="m 527.1445,161.39319 1.79525,-2.76979 h -10.76674 l 1.79429,16.32465 c 3.5672,-8.69041 3.5672,-9.20364 7.1772,-13.55486 z"
         sodipodi:nodetypes="ccccc" /><rect
         style="fill:#191993;fill-opacity:1;stroke-width:0.018422"
         id="rect4933-1"
         width="3.5886369"
         height="77.126808"
         x="473.31546"
         y="60.240131" /><path
         style="fill:#191993;fill-opacity:1;stroke-width:0.012065"
         d="m 477.52891,116.03769 v 0.001 c -1.8293,-0.003 -3.6798,-0.003 -5.5403,0.003 -4.9616,0.0185 -9.995,0.0765 -14.8895,0.17776 -19.885,0.41056 -42.1437,2.69606 -60.76319,6.2389 -5.35605,1.01912 -13.93356,3.3531 -17.68007,4.22713 l -2.23398,0.52142 v 2.42827 c 0,1.23974 0.0862,2.2176 0.19121,2.17351 0.10531,-0.0441 1.11115,-0.46756 2.23449,-0.94102 8.34161,-1.16412 24.16485,-6.16923 40.63894,-8.33321 18.8572,0 41.05735,-4.5382 55.7397,-3.9384 18.35535,0.74985 29.79974,0.42064 44.55119,1.87947 10.37356,1.02588 42.3813,6.27549 52.1705,10.51099 0.8799,0.38067 1.6514,0.69195 1.7136,0.69195 0.063,0 0.1142,-1.00635 0.1142,-2.23604 v -2.23552 l -2.6717,-0.78548 c -15.4171,-4.5333 -34.7634,-7.5083 -62.0494,-9.54051 -6.9459,-0.51735 -18.71929,-0.81434 -31.52569,-0.84336 z"
         id="path2254-4-7"
         sodipodi:nodetypes="ccccsccssccssssscsscc" /><path
         style="fill:#191993;fill-opacity:1;stroke-width:0.0144915"
         d="m 448.14411,53.752603 c -15.3279,4.14664 -28.7356,11.787185 -39.54329,22.599125 -3.4288,3.43016 -6.0006,6.54839 -8.9225,10.81898 -7.398,10.81286 -11.2826,21.969802 -12.27934,35.269182 l -0.2098,2.80138 h 1.81384 1.81384 l 0.20361,-3.25872 c 1.26211,-20.21452 11.28855,-38.214342 28.57394,-51.296102 9.5821,-7.251875 20.4053,-12.275735 32.5308,-15.110705 -0.099,-0.0252 -0.1982,-0.0504 -0.2966,-0.078 -0.1136,-0.0373 -0.228,-0.0717 -0.3405,-0.11214 -0.2881,-0.10336 -0.5602,-0.24905 -0.8413,-0.36897 -0.2402,-0.10698 -0.488,-0.19809 -0.7163,-0.33021 -0.1425,-0.0737 -0.2833,-0.15038 -0.4289,-0.21808 -0.2066,-0.10629 -0.4164,-0.20609 -0.6201,-0.31781 -0.2443,-0.13555 -0.4882,-0.27141 -0.7374,-0.3979 z"
         id="path8146-7" /><path
         style="fill:#191993;fill-opacity:1;stroke-width:0.0144915"
         d="m 504.3577,54.462633 c -0.5764,0.37059 -1.1388,0.75965 -1.7348,1.09864 -0.4834,0.26615 -0.9777,0.51268 -1.4655,0.7705 -0.047,0.0273 -0.094,0.0554 -0.1411,0.0832 4.8531,1.29659 9.5544,2.97417 14.0689,5.03018 17.3308,7.892855 30.9981,21.208875 38.3527,37.366705 3.3603,7.382442 5.2514,14.993012 5.8095,23.379462 l 0.2098,3.144 h 1.787 1.7869 l -0.1824,-2.45825 c -0.6887,-9.25983 -2.6935,-17.38233 -6.1381,-24.865682 -9.5052,-20.65017 -28.8151,-36.549225 -52.3529,-43.548755 z"
         id="path8134-9" /><path
         style="fill:#191993;fill-opacity:1;stroke-width:0.00702358"
         d="m 446.76051,54.645163 c 0,0 0.4621,0.24627 1.0574,0.75464 3.0895,2.60357 12.7291,4.57402 23.8052,4.86585 l -6e-4,-5.1e-4 c 1.7733,0.047 3.6093,0.0699 4.0798,0.0512 0.4705,-0.0187 2.0691,-0.0615 3.5529,-0.0956 1.4837,-0.034 3.7345,-0.14939 5.0012,-0.25579 10.5679,-0.88774 18.48669,-2.89505 19.69879,-5.42626 -0.2488,-0.0459 -1.1317,-0.38346 -1.3781,-0.43946 -0.8244,-0.17366 0.2067,-0.83765 -0.5742,-0.98083 -1.822,0.72939 -6.64059,2.26265 -9.98159,2.74268 -6.0784,0.87328 -10.7146,1.12815 -18.8167,1.03405 -5.8385,-0.0678 -8.5759,-0.22199 -12.7672,-0.71831 -5.6782,-0.67238 -10.8349,-2.29901 -12.6447,-3.47654 -3.0861,1.77533 -0.5178,1.44072 -0.6732,1.44952 0.169,-0.0734 -0.359,0.49536 -0.359,0.49536 z"
         id="path9086-0"
         sodipodi:nodetypes="ccccssscccsssccc" /><rect
         style="fill:#191993;fill-opacity:1;stroke-width:0.0175937"
         id="rect9189-6"
         width="3.5887449"
         height="15.735682"
         x="444.60672"
         y="39.58791" /><rect
         style="fill:#191993;fill-opacity:1;stroke-width:0.0181988"
         id="rect9189-8-30"
         width="3.5887449"
         height="16.836824"
         x="455.37234"
         y="26.339804" /><rect
         style="fill:#191993;fill-opacity:1;stroke-width:0.0187872"
         id="rect9189-8-3-6"
         width="3.5887449"
         height="17.943064"
         x="491.25833"
         y="25.233511" /><rect
         style="fill:#191993;fill-opacity:1;stroke-width:0.0187872"
         id="rect9189-8-3-4-8"
         width="3.5887449"
         height="17.943064"
         x="476.90396"
         y="25.233511" /><rect
         style="fill:#191993;fill-opacity:1;stroke-width:0.0179018"
         id="rect9189-3-8"
         width="3.5884767"
         height="16.292688"
         x="502.00296"
         y="39.588032" /><rect
         style="fill:#191993;fill-opacity:1;stroke-width:0.0293107"
         id="rect10631-0"
         width="14.35437"
         height="3.5885971"
         x="444.60672"
         y="39.58791" /><rect
         style="fill:#191993;fill-opacity:1;stroke-width:0.0293108"
         id="rect10631-2-6"
         width="14.354492"
         height="3.5885971"
         x="491.25845"
         y="39.588032" /><rect
         style="fill:#191993;fill-opacity:1;stroke-width:0.0148945"
         id="rect10707-0"
         width="39.474487"
         height="3.5885539"
         x="455.37259"
         y="25.233511" /><path
         style="fill:#191993;fill-opacity:1;stroke-width:0.0141382"
         d="m 465.25941,21.817853 c 0,-8.92775 1.4508,-20.85101031 3.373,-27.7213203 1.677,-5.9939997 3.9824,-9.5519597 6.1889,-9.5519597 0.8347,0 2.5054,1.54265 3.4206,3.15876 3.0942,5.4626597 5.3177,17.8136197 5.8298,32.38203 l 0.1809,5.14813 h -9.4965 -9.4967 z"
         id="path10790-2" /><path
         style="fill:#191993;fill-opacity:1;stroke-width:0.00678333"
         d="m 573.7741,138.95169 v -7.35677 l -2.66845,-2.80012 c -0.97237,-1.02035 -2.66845,-1.26373 -3.37805,-1.50415 -14.1564,-4.7961 -37.40734,-7.88697 -61.53454,-9.31908 -6.8961,-0.40933 -15.98525,-2.57851 -23.33916,-1.01238 l -6.56619,1.39837 v 2.44004 2.44004 l 0.4041,-0.51064 c 0.539,-0.6811 2.3693,-1.50815 3.3469,-1.95559 0.7616,-0.34862 0.829,-0.35846 1.48,-0.21614 0.8462,0.18502 3.1257,1.06323 4.2667,1.64384 1.7703,0.90084 4.0085,2.63204 5.2899,4.09164 1.636,1.86359 3.0232,5.11858 3.5889,7.06916 0.3252,1.12109 0.2553,1.0903 2.4749,1.0903 1.34499,0 1.46729,-0.0187 1.40859,-0.21583 -0.035,-0.11871 -0.19179,-0.85409 -0.34749,-1.63417 -0.2361,-1.18265 -0.3352,-2.7411 -0.3301,-4.64362 0.01,-2.15185 0.025,-2.33619 0.339,-3.23979 0.40199,-1.15649 0.79129,-1.80839 1.54979,-2.59477 0.8137,-0.84371 1.7611,-1.36606 2.2957,-1.26576 0.7152,0.13417 3.2866,1.47938 4.3258,2.26304 2.277,1.71699 4.2281,4.26002 5.3756,7.00647 0.5424,1.29794 1.2566,4.20023 1.2566,4.86306 0,0.31069 0.055,0.41794 0.2159,0.42411 0.1187,0.005 0.9249,0.0761 1.7915,0.15898 1.4076,0.13466 1.5679,0.13049 1.5024,-0.0391 -0.04,-0.1044 -0.2126,-0.99457 -0.3827,-1.97815 -0.2695,-1.55815 -0.4654,-2.95378 -0.4149,-4.67311 0.062,-2.11712 0.1968,-2.76946 0.827,-4.00834 0.4735,-0.9309 1.1454,-1.67645 2.0281,-2.25041 0.634,-0.41231 0.8194,-0.47571 1.2528,-0.42863 0.6607,0.0718 2.8794,1.13464 4.0324,1.93169 1.7352,1.19951 3.7974,3.53981 4.9754,5.6462 1.0226,1.82867 1.9153,5.5726 1.9153,6.99383 v 0.76616 l 1.8191,0.26784 c 1.0006,0.14733 1.8493,0.26717 1.8861,0.26636 0.037,-8e-4 -0.068,-0.62586 -0.2325,-1.38898 -0.255,-1.18144 -0.325,-2.72623 -0.337,-4.77405 -0.016,-2.69602 0.076,-3.19056 0.8771,-4.72056 0.745,-1.42272 2.5228,-2.79818 3.3195,-2.56812 1.3985,0.40384 3.5496,1.60323 4.9438,2.75646 3.2987,2.72858 5.6669,8.50263 5.6669,12.14013 v 1.03039 l 0.8325,0.1836 c 1.9943,0.43982 2.8753,0.60947 2.9221,0.56264 0.028,-0.0276 -0.027,-0.38271 -0.1219,-0.78915 -0.5649,-2.42526 -0.5193,-6.84575 -0.089,-8.44349 0.4594,-1.70489 1.4582,-3.10684 2.7895,-3.91557 0.9145,-0.55552 1.0971,-0.52911 3.0708,0.444 1.7825,0.87891 3.1203,1.86776 4.4531,3.29159 3.038,3.24548 4.7591,8.77521 4.2818,11.98439 -0.077,0.51627 -0.1248,0.94615 -0.1068,0.95528 0.018,0.009 1.573,0.52246 3.4554,1.14072 l 3.5894,1.21758 -3e-4,-8.22146 z"
         id="path12965-0"
         sodipodi:nodetypes="ccsssscccssssssscscsssssscscsssssssscsscssssscsccsssssssccc" /><path
         style="fill:#191993;fill-opacity:1;stroke-width:0.00678333"
         d="m 376.42332,139.09441 v -7.35677 l 1.21477,-3.3166 c 0.48476,-1.3235 3.82614,-0.0936 4.49629,-0.42861 13.8661,-6.93173 38.35774,-8.44603 62.48494,-9.87814 6.8961,-0.40933 19.35116,-1.78522 23.78641,-0.81634 l 5.50398,1.20233 v 2.44004 2.44004 l -0.4041,-0.51064 c -0.539,-0.6811 -2.3693,-1.50815 -3.3469,-1.95559 -0.7616,-0.34862 -0.829,-0.35846 -1.48,-0.21614 -0.8462,0.18502 -3.1257,1.06323 -4.2667,1.64384 -1.7703,0.90084 -4.0085,2.63204 -5.2899,4.09164 -1.636,1.86359 -3.0232,5.11858 -3.5889,7.06916 -0.3252,1.12109 -0.2553,1.0903 -2.4749,1.0903 -1.345,0 -1.4673,-0.0187 -1.4086,-0.21583 0.035,-0.11871 0.1918,-0.85409 0.3475,-1.63417 0.2361,-1.18265 0.3352,-2.7411 0.3301,-4.64362 -0.01,-2.15185 -0.025,-2.33619 -0.339,-3.23979 -0.402,-1.15649 -0.7913,-1.80839 -1.5498,-2.59477 -0.8137,-0.84371 -1.7611,-1.36606 -2.2957,-1.26576 -0.7152,0.13417 -3.2866,1.47938 -4.3258,2.26304 -2.277,1.71699 -4.2281,4.26002 -5.3756,7.00647 -0.5424,1.29794 -1.2566,4.20023 -1.2566,4.86306 0,0.31069 -0.055,0.41794 -0.2159,0.42411 -0.1187,0.005 -0.9249,0.0761 -1.7915,0.15898 -1.4076,0.13466 -1.5679,0.13049 -1.5024,-0.0391 0.04,-0.1044 0.2126,-0.99457 0.3827,-1.97815 0.2695,-1.55815 0.4654,-2.95378 0.4149,-4.67311 -0.062,-2.11712 -0.1968,-2.76946 -0.827,-4.00834 -0.4735,-0.9309 -1.1454,-1.67645 -2.0281,-2.25041 -0.634,-0.41231 -0.8194,-0.47571 -1.2528,-0.42863 -0.6607,0.0718 -2.8794,1.13464 -4.0324,1.93169 -1.7352,1.19951 -3.7974,3.53981 -4.9754,5.6462 -1.0226,1.82867 -1.9153,5.5726 -1.9153,6.99383 v 0.76616 l -1.8191,0.26784 c -1.0006,0.14733 -1.8493,0.26717 -1.8861,0.26636 -0.037,-8e-4 0.068,-0.62586 0.2325,-1.38898 0.255,-1.18144 0.325,-2.72623 0.337,-4.77405 0.016,-2.69602 -0.076,-3.19056 -0.8771,-4.72056 -0.745,-1.42272 -2.5228,-2.79818 -3.3195,-2.56812 -1.39849,0.40384 -3.54959,1.60323 -4.94379,2.75646 -3.2987,2.72858 -5.6669,8.50263 -5.6669,12.14013 v 1.03039 l -0.8325,0.1836 c -1.9943,0.43982 -2.8753,0.60947 -2.9221,0.56264 -0.028,-0.0276 0.027,-0.38271 0.1219,-0.78915 0.5649,-2.42526 0.5193,-6.84575 0.089,-8.44349 -0.4594,-1.70489 -1.4582,-3.10684 -2.7895,-3.91557 -0.9145,-0.55552 -1.0971,-0.52911 -3.0708,0.444 -1.7825,0.87891 -3.1203,1.86776 -4.4531,3.29159 -3.038,3.24548 -4.7591,8.77521 -4.2818,11.98439 0.077,0.51627 0.1248,0.94615 0.1068,0.95528 -0.018,0.009 -1.573,0.52246 -3.4554,1.14072 l -3.5894,1.21758 3e-4,-8.22146 z"
         id="path12965-2-0"
         sodipodi:nodetypes="ccsssscccssssssscscsssssscscsssssssscsscssssscsccsssssssccc" /><rect
         style="fill:#191993;fill-opacity:1;stroke-width:0.0145521"
         id="rect13310-0"
         width="1.2163018"
         height="4.8925009"
         x="376.42178"
         y="128.42104" /><rect
         style="fill:#191993;fill-opacity:1;stroke-width:0.0145521"
         id="rect13312-1"
         width="2.6701"
         height="12.53027"
         x="571.10565"
         y="127.6368" /><rect
         style="fill:#191993;fill-opacity:1;stroke-width:0.0145521"
         id="rect13765-5"
         width="16.148588"
         height="17.943077"
         x="476.90408"
         y="25.233511" /><rect
         style="fill:#191993;fill-opacity:1;stroke-width:0.0154431"
         id="rect13767-4"
         width="18.495802"
         height="12.301128"
         x="484.08133"
         y="41.798115" /><rect
         style="fill:#191993;fill-opacity:1;stroke-width:0.0145521"
         id="rect13769-6"
         width="12.633931"
         height="6.0481248"
         x="484.08133"
         y="51.704395" /><rect
         style="fill:#191993;fill-opacity:1;stroke-width:0.0145521"
         id="rect13771-9"
         width="7.0428748"
         height="4.7105951"
         x="493.97342"
         y="51.704395" /><path
         id="rect13773-2"
         style="fill:#191993;fill-opacity:1;stroke-width:0.0145521"
         d="m 476.90411,43.176603 12.00195,-3.90575 -4.82475,18.48165 c 0,-9.11458 -3.5886,-14.5759 -7.1772,-14.5759 z"
         sodipodi:nodetypes="cccc" /><path
         id="rect13773-4-5"
         style="fill:#191993;fill-opacity:1;stroke-width:0.0145521"
         d="m 469.72691,28.822083 10.76581,-3.58857 -3.58861,18.16447 c 0,-9.11458 -3.5886,-14.5759 -7.1772,-14.5759 z"
         sodipodi:nodetypes="cccc" /><rect
         style="fill:#191993;fill-opacity:1;stroke-width:0.0145521"
         id="rect14166-7"
         width="17.942999"
         height="3.5885999"
         x="466.13834"
         y="75.473984" /><rect
         style="fill:#191993;fill-opacity:1;stroke-width:0.0188941"
         id="rect14166-9-6"
         width="30.2479"
         height="3.5885999"
         x="460.02188"
         y="100.59416" /><path
         id="rect14168-6"
         style="fill:#191993;fill-opacity:1;stroke-width:0.0126024"
         d="m 448.19541,79.062588 h 10.7657 l -1.3311,3.58859 -9.4346,1e-5 z"
         sodipodi:nodetypes="ccccc" /><rect
         style="fill:#191993;fill-opacity:1;stroke-width:0.0145521"
         id="rect14168-3-18"
         width="14.3544"
         height="3.5885999"
         x="423.07504"
         y="82.651192" /><rect
         style="fill:#191993;fill-opacity:1;stroke-width:0.01626"
         id="rect14168-3-1-3"
         width="17.921602"
         height="3.5885999"
         x="412.33066"
         y="100.59416" /><rect
         style="fill:#191993;fill-opacity:1;stroke-width:0.0145521"
         id="rect14168-3-1-4-4"
         width="14.3544"
         height="3.5885999"
         x="519.96735"
         y="100.59416" /><path
         id="rect14168-37-3"
         style="fill:#191993;fill-opacity:1;stroke-width:0.0125899"
         d="m 491.25861,79.062588 h 10.74429 v 3.5886 l -9.74799,-1e-5 z"
         sodipodi:nodetypes="ccccc" /><rect
         style="fill:#191993;fill-opacity:1;stroke-width:0.0145521"
         id="rect14168-5-8"
         width="14.3544"
         height="3.5885999"
         x="512.7901"
         y="82.651192" /><path
         style="opacity:0.469003;fill:#191993;fill-opacity:1;stroke-width:0.026447"
         d="m 420.87051,140.42408 c 0.089,0.17398 0.1854,0.33688 0.2723,0.39016 0.06,0.0368 -0.069,-0.12301 -0.096,-0.18811 0,-0.008 0.01,-0.0147 0.01,-0.0227 -0.054,-0.0527 -0.1078,-0.10595 -0.1618,-0.15865 0.01,-0.005 0.01,-0.009 0.01,-0.0145 -0.012,-0.002 -0.023,-0.004 -0.035,-0.006 z"
         id="path20188-3" /><path
         style="fill:#191993;fill-opacity:1;stroke-width:0.026447"
         d="m 455.28371,57.042323 c -2.355,2.16709 -4.7077,4.71349 -7.0884,7.666195 -6.5486,8.12126 -11.1227,16.13687 -16.3603,28.67266 -3.7528,8.982232 -6.9802,18.707682 -9.6811,29.153272 0.03,-0.008 0.06,-0.017 0.09,-0.0248 0.8414,-0.21151 1.6943,-0.35006 2.5466,-0.50953 0.3258,-0.0608 0.6523,-0.1177 0.9792,-0.17157 5.6193,-21.20709 13.2703,-38.982472 22.3863,-51.413922 3.7262,-5.08153 7.7269,-9.192635 11.8659,-12.257645 -0.272,-0.0636 -0.5445,-0.125 -0.818,-0.18294 -0.5201,-0.11463 -1.0377,-0.23356 -1.5612,-0.33176 -0.3962,-0.0774 -0.7945,-0.14453 -1.1885,-0.23203 -0.3978,-0.0961 -0.7875,-0.22454 -1.1705,-0.36793 z"
         id="path20198-9" /><path
         style="fill:#191993;fill-opacity:1;stroke-width:0.026447"
         d="m 495.94101,57.490753 c -0.3123,0.14379 -0.6252,0.28596 -0.9348,0.43563 -0.4164,0.20596 -0.7792,0.51865 -1.2257,0.66714 -0.4877,0.17154 -0.9883,0.28252 -1.5007,0.35192 -0.1049,0.0184 -0.2094,0.0384 -0.3137,0.0589 6.0588,5.059695 11.74099,12.454085 17.04499,22.190375 5.6832,10.43286 10.5955,23.297692 14.5448,37.695902 0.4065,0.0153 0.8127,0.0365 1.2175,0.0775 0.8141,0.0958 1.6269,0.23597 2.3843,0.56121 -6.4335,-24.250912 -15.5182,-44.016662 -26.6614,-57.124167 -1.5322,-1.80215 -3.04689,-3.43545 -4.55529,-4.91443 z"
         id="path20210-8" /><path
         style="fill:#191993;fill-opacity:1;stroke-width:0.0105972"
         d="m 467.69121,59.206013 c -0.8723,0.8206 -1.7595,1.80369 -2.6892,2.98225 -7.8399,9.938435 -14.0925,30.910045 -17.5442,57.710697 0.4102,10e-4 0.8203,-1.2e-4 1.2304,-5.2e-4 0.4319,-4.3e-4 0.8642,6.5e-4 1.2961,0.005 0.2144,0.002 0.4288,0.009 0.6428,0.0196 3.9133,-31.511002 11.5573,-54.073342 20.868,-59.011907 0.8673,-0.45999 1.2184,-0.60311 2.1348,-0.64905 0,-0.12633 0,-0.25295 0,-0.37931 -0.3992,-0.0622 -0.7997,-0.11622 -1.1999,-0.1726 -0.3754,-0.0497 -0.7508,-0.0986 -1.1265,-0.14521 -0.2433,-0.0348 -0.489,-0.0416 -0.7344,-0.0486 -0.3148,-0.002 -0.6279,-0.0416 -0.9389,-0.0878 -0.2602,-0.0415 -0.5213,-0.0757 -0.7829,-0.10801 -0.2356,-0.0305 -0.4731,-0.0438 -0.7095,-0.0661 -0.1479,-0.013 -0.2952,-0.0301 -0.4424,-0.0486 z"
         id="path28227-1" /><path
         style="fill:#191993;fill-opacity:1;stroke-width:0.0105972"
         d="m 482.35801,59.096973 c -0.1705,0.0283 -0.3409,0.0563 -0.5121,0.0816 -0.623,0.0935 -1.2376,0.23425 -1.8516,0.3731 -0.5125,0.13544 -1.0304,0.24202 -1.5549,0.31782 -0.407,0.0531 -0.8176,0.0703 -1.2268,0.0982 -0.3093,0.0213 -0.6187,0.0344 -0.9286,0.0424 -0.024,5.3e-4 -0.049,6e-5 -0.073,5.2e-4 8e-4,0.0927 0,0.18536 0.01,0.27802 1.4803,0.12682 2.3929,0.53449 3.7548,1.54254 3.25,2.405175 6.474,7.312315 9.2749,14.116445 4.5055,10.94537 7.9646,26.127092 10.17349,44.216952 h 1.5369 1.7802 c -2.732,-21.331232 -7.25499,-39.085772 -12.91549,-50.451192 -2.3626,-4.74392 -4.8725,-8.295555 -7.4631,-10.616405 z"
         id="path22584-4" /><path
         style="fill:#191993;fill-opacity:1;stroke-width:0.0105972"
         d="m 487.78571,100.59415 c 1.1137,5.70859 2.0832,11.83955 2.8803,18.36895 h 1.5369 1.7803 c -0.831,-6.48697 -1.8291,-12.62372 -2.973,-18.36896 z"
         id="path28269-6"
         sodipodi:nodetypes="cccccc" /><path
         style="fill:#191993;fill-opacity:1;stroke-width:0.0105972"
         d="m 462.54971,100.59415 c -1.1137,5.70859 -2.0832,11.83955 -2.8803,18.36895 h -1.5369 -1.7803 c 0.831,-6.48697 1.8291,-12.62372 2.973,-18.36896 z"
         id="path28269-1-9"
         sodipodi:nodetypes="cccccc" /><path
         style="fill:#191993;fill-opacity:1;stroke-width:0.0105972"
         d="m 480.85791,75.650998 c 2.4253,6.09306 3.6507,9.39141 5.4178,17.76596 h 3.1794 c -1.7672,-8.30464 -2.883,-11.38265 -5.2231,-17.57374 0,-2e-5 -0.1407,-0.36924 -0.1507,-0.36924 l -3.1371,0.19534 c -0.03,-0.006 -0.06,-0.0125 -0.09,-0.0186 z"
         id="path28259-6"
         sodipodi:nodetypes="cccscccc" /><path
         style="fill:#191993;fill-opacity:1;stroke-width:0.0105972"
         d="m 469.36171,75.650998 c -2.4253,6.09306 -3.6648,9.39141 -5.4319,17.76596 h -3.1794 c 1.7672,-8.30464 2.8971,-11.38265 5.2372,-17.57374 0,-2e-5 0.1407,-0.36924 0.1507,-0.36924 l 3.1371,0.19534 c 0.03,-0.006 0.06,-0.0125 0.09,-0.0186 z"
         id="path28259-7-0"
         sodipodi:nodetypes="cccscccc" /><rect
         style="fill:#191993;fill-opacity:1;stroke-width:0.0149215"
         id="rect28524-3"
         width="14.354346"
         height="3.5885956"
         x="498.4357"
         y="100.59416" /><rect
         style="fill:#191993;fill-opacity:1;stroke-width:0.0127053"
         id="rect28548-1"
         width="10.097799"
         height="3.5885999"
         x="441.0181"
         y="100.59416" /><path
         style="fill:#191993;fill-opacity:1;stroke-width:0.0359309"
         d="m 412.33071,100.59414 c -3.38379,6.47519 -6.36299,13.47486 -8.88109,20.90726 0.3158,-0.10682 0.6498,-0.15291 0.9855,-0.1788 0.3249,-0.0213 0.6507,-0.0244 0.9762,-0.0284 0.2558,-0.003 0.5114,-0.003 0.7673,-0.004 0.1539,0.01 0.3026,-0.007 0.4538,-0.0248 2.5764,-7.32447 5.63989,-14.25834 9.11619,-20.6711 h -0.3168 -1.3141 -1.3384 z"
         id="path30893-4" /><path
         style="fill:#191993;fill-opacity:1;stroke-width:0.0359309"
         d="m 534.3217,100.59414 c 3.3838,6.47519 6.363,13.47486 8.8811,20.90726 -0.3158,-0.10682 -0.6498,-0.15291 -0.9855,-0.1788 -0.3249,-0.0213 -0.6507,-0.0244 -0.9762,-0.0284 -0.2558,-0.003 -0.5114,-0.003 -0.7673,-0.004 -0.1539,0.01 -0.3026,-0.007 -0.4538,-0.0248 -2.5764,-7.32447 -5.6399,-14.25834 -9.1162,-20.6711 h 0.3168 1.3141 1.3384 z"
         id="path30893-8-6" /><path
         style="fill:#191993;fill-opacity:1;stroke-width:0.0359309"
         d="m 423.07511,82.651178 -5e-4,5.2e-4 c -2.6185,3.33093 -5.1595,6.96648 -7.4886,10.76526 h 3.5855 c 2.0777,-3.25986 4.3254,-6.40729 6.6213,-9.30024 -0.091,-0.0439 -0.1823,-0.0888 -0.2723,-0.13591 -0.2145,-0.11303 -0.4238,-0.23512 -0.616,-0.38395 l -5e-4,-5.2e-4 c -0.05,-0.0125 -0.099,-0.0255 -0.1483,-0.0408 -0.077,-0.0235 -0.1555,-0.0452 -0.2295,-0.0765 -0.074,-0.0335 -0.1469,-0.068 -0.2129,-0.11524 -0.044,-0.0307 -0.091,-0.058 -0.1338,-0.0915 -0.025,-0.0176 -0.051,-0.0318 -0.077,-0.0465 0,7.5e-4 0.01,0.002 0.01,0.001 -0.037,-0.0218 -0.083,-0.0302 -0.1178,-0.0568 -0.036,-0.0212 -0.049,-0.0297 -0.093,-0.0512 -0.041,-0.0228 -0.087,-0.0362 -0.1292,-0.0579 -0.026,-0.0163 -0.06,-0.0196 -0.088,-0.0315 -0.018,-0.006 -3e-4,0.002 -0.037,-0.009 -0.059,-0.0153 -0.117,-0.0354 -0.169,-0.0667 -0.02,-0.0137 -0.041,-0.0271 -0.061,-0.0413 -0.036,-0.0255 -0.046,-0.0437 -0.067,-0.0563 -0.028,-0.0221 -0.061,-0.0489 -0.086,-0.0703 -0.036,-0.0253 -0.072,-0.0498 -0.1075,-0.0765 -0.026,-0.0194 -0.052,-0.0385 -0.077,-0.0579 z"
         id="path30850-7"
         sodipodi:nodetypes="csccccscccccccccccccsccscc" /><path
         style="fill:#191993;fill-opacity:1;stroke-width:0.0359309"
         d="m 527.144,82.650658 5e-4,5.2e-4 c 2.6185,3.33093 5.1595,6.96648 7.4886,10.76526 h -3.5855 c -2.0777,-3.25986 -4.3254,-6.40729 -6.6213,-9.30024 0.091,-0.0439 0.1823,-0.0888 0.2723,-0.13591 0.2145,-0.11303 0.4238,-0.23512 0.616,-0.38395 l 5e-4,-5.2e-4 c 0.05,-0.0125 0.099,-0.0255 0.1483,-0.0408 0.077,-0.0235 0.1555,-0.0452 0.2295,-0.0765 0.074,-0.0335 0.1469,-0.068 0.2129,-0.11524 0.044,-0.0307 0.091,-0.058 0.1338,-0.0915 0.025,-0.0176 0.051,-0.0318 0.077,-0.0465 0,7.5e-4 -0.01,0.002 -0.01,10e-4 0.037,-0.0218 0.083,-0.0302 0.1178,-0.0568 0.036,-0.0212 0.049,-0.0297 0.093,-0.0512 0.041,-0.0228 0.087,-0.0362 0.1292,-0.0579 0.026,-0.0163 0.06,-0.0196 0.088,-0.0315 0.018,-0.006 3e-4,0.002 0.037,-0.009 0.059,-0.0153 0.117,-0.0354 0.169,-0.0667 0.02,-0.0137 0.041,-0.0271 0.061,-0.0413 0.036,-0.0255 0.046,-0.0437 0.067,-0.0563 0.028,-0.0221 0.061,-0.0489 0.086,-0.0703 0.036,-0.0253 0.072,-0.0498 0.1075,-0.0765 0.026,-0.0194 0.052,-0.0385 0.077,-0.0579 z"
         id="path30850-8-9"
         sodipodi:nodetypes="csccccscccccccccccccsccscc" /><path
         style="opacity:0.495957;fill:#191993;fill-opacity:1;stroke-width:0.0359309"
         d="m 423.19781,82.751858 5e-4,5.2e-4 5e-4,-5.2e-4 z"
         id="path30838-9" /><path
         style="opacity:0.495957;fill:#191993;fill-opacity:1;stroke-width:0.0359309"
         d="m 423.19731,82.750828 c 5e-4,3.7e-4 0,6.6e-4 0,0.001 3e-4,-3.8e-4 8e-4,-6.6e-4 0,-0.001 z"
         id="path30743-9" /><path
         style="fill:#191993;fill-opacity:1;stroke-width:0.0153483"
         d="m 439.18341,100.59418 c 0,2e-5 -3.1196,10.25953 -4.8069,18.03715 0.3348,-0.0848 0.6746,-0.13521 1.0206,-0.14056 0.059,-9e-4 0.118,-6.9e-4 0.1772,0.001 0.3593,0.0208 0.7184,0.0507 1.0739,0.10852 0.2651,0.0453 0.5287,0.0984 0.7906,0.15864 1.2716,-6.24484 2.8845,-12.13799 4.8721,-17.74311 -0.5172,-0.0639 -1.0315,-0.42168 -1.0315,-0.42168 z"
         id="path31640-8" /><path
         style="fill:#191993;fill-opacity:1;stroke-width:0.0153483"
         d="m 512.7901,100.59414 c 0,2e-5 3.1196,10.25953 4.8069,18.03715 -0.3348,-0.0848 -0.6746,-0.13521 -1.0206,-0.14056 -0.059,-9e-4 -0.118,-6.9e-4 -0.1772,0.001 -0.3593,0.0208 -0.7184,0.0507 -1.0739,0.10852 -0.2651,0.0453 -0.5287,0.0984 -0.7906,0.15864 -1.2716,-6.24484 -2.8845,-12.13799 -4.8721,-17.74311 0.5172,-0.0639 1.0315,-0.42168 1.0315,-0.42168 z"
         id="path31640-4-6" /><path
         style="fill:#191993;fill-opacity:1;stroke-width:0.0153483"
         d="m 448.19541,79.062578 c -1.3476,2.24759 -2.6522,4.68147 -3.9145,7.30809 -0.9578,1.99339 -2.4247,5.01106 -3.2628,7.04629 0,0 3.3072,0 3.3072,0 2.0452,-4.93034 4.772,-10.09031 7.1888,-13.86239 -1.1094,-0.14254 -2.2173,-0.29762 -3.3187,-0.49196 z"
         id="path31636-6"
         sodipodi:nodetypes="sscccss" /><path
         style="fill:#191993;fill-opacity:1;stroke-width:0.0153483"
         d="m 502.0029,79.062548 c 1.3476,2.24759 2.6522,4.68147 3.9145,7.30809 0.9578,1.99339 2.4247,5.01106 3.2628,7.04629 0,0 -3.3072,0 -3.3072,0 -2.0452,-4.93034 -4.772,-10.09031 -7.1888,-13.86239 1.1094,-0.14254 2.2173,-0.29762 3.3187,-0.49196 z"
         id="path31636-0-5"
         sodipodi:nodetypes="sscccss" /><path
         style="opacity:0.460916;fill:#191993;fill-opacity:1;stroke-width:0.0153483"
         d="m 500.6716,79.624398 c -0.074,-0.0219 0.1442,0.0573 0.2202,0.0724 0.021,0.004 0.041,0.006 0.062,0.0103 -0.086,-0.0248 -0.1665,-0.0482 -0.2827,-0.0827 z"
         id="path31632-2" /><rect
         style="opacity:1;fill:#191993;fill-opacity:1;stroke-width:0.0145521"
         id="rect32986"
         width="18.735809"
         height="2.8035409"
         x="465.25943"
         y="24.224264" /><rect
         style="opacity:1;fill:#191993;fill-opacity:1;stroke-width:0.0145521"
         id="rect32988"
         width="8.3148298"
         height="1.3859069"
         x="472.17789"
         y="28.294085" /><rect
         style="opacity:1;fill:#191993;fill-opacity:1;stroke-width:0.0145521"
         id="rect33001"
         width="9.524621"
         height="2.2938755"
         x="535.052"
         y="195.61296" /><rect
         style="opacity:1;fill:#191993;fill-opacity:1;stroke-width:0.0145521"
         id="rect33003"
         width="4.7424817"
         height="4.4794984"
         x="579.79675"
         y="194.07256" /><rect
         style="opacity:1;fill:#191993;fill-opacity:1;stroke-width:0.0145521"
         id="rect33005"
         width="0.88078052"
         height="1.8292612"
         x="544.57666"
         y="196.07759" /><rect
         style="opacity:1;fill:#191993;fill-opacity:1;stroke-width:0.0145521"
         id="rect33007"
         width="5.9501433"
         height="6.0702219"
         x="365.65341"
         y="192.98787" /><rect
         style="opacity:1;fill:#191993;fill-opacity:1;stroke-width:0.0145521"
         id="rect33009"
         width="3.5886366"
         height="5.467659"
         x="473.31546"
         y="58.173817" /></g><ellipse
       style="opacity:1;fill:#feca13;fill-opacity:1;stroke:none;stroke-width:31.6345;stroke-dasharray:none;stroke-opacity:1;paint-order:markers fill stroke"
       id="path41164"
       cx="80.529907"
       cy="-588.33551"
       rx="19.043961"
       ry="19.440386" /><g
       id="g43899"
       transform="matrix(0.42750209,0,0,0.42750209,-183.8228,-468.34915)"><g
         id="g43913"
         transform="translate(-690.05826,-1144.4593)"><circle
           fill="#ffffff"
           r="50.270832"
           id="circle43424"
           cx="1421.1989"
           cy="1318.0374"
           style="fill:#feca13;fill-opacity:1;stroke-width:2.64583" /><circle
           fill="#ffe400"
           cy="1297.8151"
           r="39.6875"
           id="circle43426"
           cx="1421.1989"
           style="fill:#ffffff;stroke-width:2.64583" /></g><g
         id="g43913-4"
         transform="translate(-577.24822,-1144.4593)"><circle
           fill="#ffffff"
           r="50.270832"
           id="circle43424-7"
           cx="1421.1989"
           cy="1318.0374"
           style="fill:#feca13;fill-opacity:1;stroke-width:2.64583" /><circle
           fill="#ffe400"
           cy="1297.8151"
           r="39.6875"
           id="circle43426-8"
           cx="1421.1989"
           style="fill:#ffffff;stroke-width:2.64583" /></g><g
         id="g43913-8"
         transform="translate(-802.83296,-1144.4593)"><circle
           fill="#ffffff"
           r="50.270832"
           id="circle43424-1"
           cx="1421.1989"
           cy="1318.0374"
           style="fill:#feca13;fill-opacity:1;stroke-width:2.64583" /><circle
           fill="#ffe400"
           cy="1297.8151"
           r="39.6875"
           id="circle43426-9"
           cx="1421.1989"
           style="fill:#ffffff;stroke-width:2.64583" /></g></g><path
       d="m 176.96752,-607.9069 c -3.53258,2.50498 -6.11111,4.46774 -6.07704,7.40268 0.0581,4.98519 4.73467,12.84926 4.50769,17.7976 -0.47715,-4.45939 -2.58828,-8.833 -4.24944,-10.33979 -1.11213,-1.0097 -2.35077,-1.44759 -3.52886,-1.43217 -1.17828,0.015 -2.29797,0.48253 -3.16966,1.28217 -2.19966,2.01633 -3.51772,6.26283 0.97313,11.53971 0.83734,0.98391 1.10226,1.97562 0.58423,2.64417 1.23015,-0.5597 3.38673,-1.78657 2.27227,-3.29011 -2.4113,-3.25296 0.55513,-5.10843 2.63024,-3.63353 1.47825,1.05067 3.68555,3.63538 3.06933,6.61244 -0.23503,1.13712 -0.57532,2.75997 -1.53318,4.05342 -0.4747,0.64096 -1.66735,0.70527 -3.79021,-0.20865 1.41529,4.59842 4.59006,4.97063 6.49383,-0.61569 -1.11706,3.86236 0.69487,6.00148 1.81801,7.19954 1.12316,-1.19806 2.93509,-3.33718 1.818,-7.19954 1.90378,5.58654 5.07839,5.21433 6.49384,0.61569 -2.12286,0.91395 -3.31551,0.84961 -3.79022,0.20865 -0.95786,-1.29335 -1.29815,-2.91621 -1.53318,-4.05342 -0.61615,-2.97706 1.59118,-5.56177 3.06933,-6.61244 2.07518,-1.4749 5.04155,0.38078 2.63024,3.63353 -1.11449,1.50347 1.04209,2.73041 2.27227,3.29011 -0.51802,-0.66858 -0.25311,-1.66022 0.58423,-2.64417 4.49098,-5.27688 3.17276,-9.52322 0.97314,-11.53971 -0.87188,-0.79964 -1.99142,-1.26718 -3.16966,-1.28217 -1.17828,-0.0154 -2.41689,0.42247 -3.52887,1.43217 -1.66101,1.50667 -3.77225,5.88009 -4.24944,10.33979 -0.22705,-4.94896 4.44948,-12.81303 4.5077,-17.7976 0.0342,-2.9351 -2.54462,-4.89786 -6.07705,-7.40268 z"
       fill="#ffcc00"
       stroke-width="0.309658"
       id="path45310"
       style="fill:#feca13;fill-opacity:1" /></g></svg>
