<svg xmlns="http://www.w3.org/2000/svg" width="1000" height="600" version="1"><path d="M0 0h1000v600H0z"/><path fill="#f5dc0f" d="M333 0h333v600H333z"/><path d="M500.009 135.251a99.242 99.242 0 0 0-3.215.068v2.827c-1.595.036-3.132.16-4.643.34v-1.379l-1.106-1.294a55.06 55.06 0 0 0-3.912.75v2.842c-.358.095-.714.209-1.071.324v-1.396l-1.53-.886a6.456 6.456 0 0 0-1.872 1.158v4.206l1.48 1.106v39.636h-.646v1.345h-6.6v-1.345h-6.599v1.345h-6.956v-12.956l1.497-1.107v-4.188a6.529 6.529 0 0 0-1.888-1.158l-1.53.885v1.38c-.351-.116-.702-.214-1.055-.307v-2.86c-1.292-.29-2.59-.551-3.912-.75l-.017.017-1.106 1.294v1.362a49.333 49.333 0 0 0-4.643-.323v-2.826a83.147 83.147 0 0 0-6.77 0v2.826c-1.59.037-3.133.145-4.643.323v-1.362l-1.105-1.294c-1.282.15-2.62.457-3.912.733v2.86c-.357.094-.718.19-1.071.306v-1.379l-1.531-.885a6.456 6.456 0 0 0-1.871 1.158v4.188l1.48 1.107v49.698l-1.02.902v3.865c2.016 2.062 9.63 3.064 17.007 3.064 6.498 0 13.26-.772 16.158-2.366h73.186c2.879 1.594 9.558 2.366 16.056 2.366 7.377 0 15.093-1.002 17.11-3.064v-3.865l-1.02-.902v-49.698l1.479-1.107v-4.188a6.456 6.456 0 0 0-1.87-1.158l-1.532.885v1.38a19.445 19.445 0 0 0-1.054-.307v-2.86c-1.292-.29-2.59-.551-3.912-.75l-.017.017-1.106 1.294v1.38a48.967 48.967 0 0 0-4.643-.341v-2.826a83.148 83.148 0 0 0-6.769 0v2.826c-1.59.037-3.134.145-4.643.323v-1.362l-1.106-1.294c-1.282.15-2.62.457-3.912.733v2.86c-.356.094-.717.19-1.071.306v-1.379l-1.548-.885c-.61.237-1.275.649-1.854 1.158v4.188l1.48 1.107v12.956h-6.956v-1.345h-6.6v1.345h-6.599v-1.345h-.289v-39.636l1.497-1.106v-4.206a6.528 6.528 0 0 0-1.888-1.157l-1.53.885v1.379a19.438 19.438 0 0 0-1.055-.307v-2.843a55.06 55.06 0 0 0-3.912-.749h-.017l-1.106 1.294v1.38a48.958 48.958 0 0 0-4.643-.341v-2.827a82.948 82.948 0 0 0-3.555-.068z" fill-rule="evenodd" stroke="#000" stroke-width="3.50181"/><path d="M500 230.11c-10.587 0-20.652 1.804-27.553 10.318-1.166-1.527-2.523-2.773-4.065-3.678-3-1.76-6.43-2.25-9.882-2.111-6.525.264-11.006 2.696-14.848 4.852-3.842 2.156-7.088 4.03-12.535 4.546-5.676.537-8.64-.071-11.225-1.413.068-.058.138-.108.204-.17a5.262 5.262 0 0 0 .22-7.423 5.229 5.229 0 0 0-8.996 4.239 5.207 5.207 0 0 0-4.542 1.328 5.262 5.262 0 0 0-.22 7.423c1.849 1.967 4.85 2.17 6.956.58 1.094 2.196 1.537 4.573.765 8.171-1.543 7.19-5.547 10.934-9.78 13.536-2.116 1.3-4.288 2.214-6.157 3.065-5.358 2.438-12.499 7.335-13.045 13.91a5.243 5.243 0 0 0 5.239 5.243 5.248 5.248 0 0 0 4.54-2.639c2.536.67 4.5 2.058 6.175 4.087 2.366 2.866 4.012 7.164 4.711 12.275.613 4.48-2.077 9.788-6.293 14.421-2.175 2.39-4.719 4.546-7.126 6.282a5.233 5.233 0 0 0-4.967-3.575 5.243 5.243 0 0 0-5.238 5.244c0 1.737.842 3.268 2.143 4.222a5.218 5.218 0 0 0-2.143 4.223 5.243 5.243 0 0 0 5.238 5.244 5.203 5.203 0 0 0 4.082-1.975c6.265 4.995 13.054 12.114 16.6 21.35 3.985 10.378 7.653 19.65 12.433 26.27 2.39 3.31 5.106 6.007 8.453 7.611 1.51.724 3.16 1.152 4.864 1.345-1.136 3.096-1.411 6.106-.629 8.82 1.248 4.329 4.497 7.492 8.164 9.942 7.335 4.902 17.132 7.455 21.873 9.007 6.997 2.292 14.721 6.843 21.991 11.595 4.054 2.65 6.796 6.03 8.725 10.25a6.18 6.18 0 0 0-5.153 6.111 6.18 6.18 0 0 0 6.19 6.198h.34v2.588a4.483 4.483 0 0 0 4.491 4.494 4.483 4.483 0 0 0 4.49-4.494v-2.588h.34a6.18 6.18 0 0 0 6.191-6.198 6.173 6.173 0 0 0-5.34-6.129c2.07-5.228 5.74-7.94 8.946-10.215 6.727-4.774 14.176-8.679 21.957-11.612 4.74-1.552 14.538-4.105 21.873-9.007 3.667-2.45 6.916-5.613 8.164-9.943.782-2.713.507-5.723-.63-8.819 1.705-.193 3.354-.62 4.865-1.345 3.347-1.604 6.063-4.3 8.453-7.61 4.78-6.62 8.448-15.893 12.433-26.271 3.546-9.236 10.335-16.355 16.6-21.35a5.203 5.203 0 0 0 4.082 1.975 5.243 5.243 0 0 0 5.238-5.244 5.218 5.218 0 0 0-2.143-4.223 5.218 5.218 0 0 0 2.143-4.222 5.243 5.243 0 0 0-5.238-5.244 5.233 5.233 0 0 0-4.967 3.575c-2.407-1.736-4.95-3.891-7.126-6.282-4.216-4.633-6.905-9.942-6.293-14.42.699-5.112 2.345-9.41 4.711-12.276 1.675-2.03 3.639-3.417 6.174-4.087a5.248 5.248 0 0 0 4.541 2.64 5.243 5.243 0 0 0 5.239-5.244c-.546-6.575-7.687-11.472-13.045-13.91-1.869-.85-4.041-1.764-6.157-3.065-4.233-2.602-8.237-6.345-9.78-13.536-.772-3.598-.329-5.975.765-8.172 2.106 1.592 5.107 1.388 6.957-.579a5.262 5.262 0 0 0-.221-7.423 5.207 5.207 0 0 0-4.542-1.328 5.229 5.229 0 0 0-8.997-4.24 5.262 5.262 0 0 0 .221 7.424c.066.062.136.112.204.17-2.585 1.342-5.55 1.95-11.225 1.413-5.447-.515-8.693-2.39-12.535-4.546-3.842-2.156-8.323-4.588-14.848-4.852-3.452-.14-6.883.351-9.882 2.111-1.542.905-2.9 2.151-4.065 3.678-6.9-8.514-16.966-10.318-27.553-10.318z" fill="#fff" stroke="#000" stroke-linecap="round" stroke-linejoin="round" stroke-width="1.16727"/><path d="M500 240.504c5.358 0 9.354-4.207 15.07-1.847 2.71.997 4.485 2.327 5.97 3.967a5.243 5.243 0 0 0 1.888 10.13c1.734 0 3.264-.86 4.217-2.162.953 1.302 2.483 2.162 4.218 2.162a5.243 5.243 0 0 0 5.238-5.244 5.242 5.242 0 0 0-2.568-4.511c.285-.228.58-.434.885-.613 1.584-.93 3.652-1.334 6.31-1.226 5.1.206 8.115 1.898 11.922 4.035 3.808 2.137 8.363 4.723 15.12 5.363 4.606.436 8.155-.032 11.124-.92-.601 2.48-.74 5.283-.051 8.496 1.952 9.1 7.559 14.574 12.739 17.758 2.59 1.592 5.075 2.666 7.007 3.49 2.237 1.007 4.092 1.787 5.392 3.985-4.38.918-8.09 3.21-10.766 6.452-3.417 4.14-5.324 9.577-6.14 15.545-1.021 7.466 3.02 14.308 7.926 19.699 3.323 3.652 7.09 6.643 10.596 8.853-7.332 5.457-15.935 13.632-20.461 25.42-3.962 10.32-7.641 19.283-11.617 24.789-1.987 2.753-3.997 4.58-5.986 5.533-.42.201-.848.359-1.276.494a5.256 5.256 0 0 0-1.905-6.504 5.221 5.221 0 0 0-7.245 1.481 5.24 5.24 0 0 0-.528 4.716c-1.61.079-3.176.884-4.133 2.333a5.253 5.253 0 0 0 1.48 7.27 5.244 5.244 0 0 0 5.732.034c.604 1.747.551 3.162.187 4.427-.623 2.161-2.557 4.342-5.51 6.316-5.91 3.948-15.13 6.556-20.274 8.24-12.009 3.934-24.915 12.538-34.561 20.504-9.646-7.966-22.552-16.57-34.56-20.503-5.145-1.685-14.366-4.293-20.274-8.24-2.954-1.975-4.888-4.156-5.51-6.317-.365-1.265-.418-2.68.186-4.427a5.244 5.244 0 0 0 5.732-.034 5.253 5.253 0 0 0 1.48-7.27c-.957-1.45-2.522-2.254-4.133-2.333a5.24 5.24 0 0 0-.528-4.716 5.221 5.221 0 0 0-7.245-1.48 5.256 5.256 0 0 0-1.905 6.503 9.682 9.682 0 0 1-1.276-.494c-1.99-.954-3.999-2.78-5.986-5.533-3.976-5.506-7.655-14.47-11.617-24.79-4.526-11.787-13.13-19.962-20.46-25.419 3.505-2.21 7.272-5.2 10.595-8.853 4.906-5.391 8.947-12.233 7.926-19.7-.816-5.967-2.723-11.404-6.14-15.544-2.676-3.242-6.385-5.534-10.766-6.452 1.3-2.198 3.155-2.978 5.392-3.984 1.932-.825 4.417-1.899 7.007-3.49 5.18-3.185 10.787-8.66 12.74-17.759.689-3.213.55-6.016-.052-8.495 2.969.887 6.518 1.355 11.123.92 6.758-.64 11.313-3.227 15.12-5.364 3.808-2.137 6.824-3.829 11.923-4.035 2.658-.108 4.726.296 6.31 1.226.306.179.6.385.885.613a5.242 5.242 0 0 0-2.568 4.511 5.243 5.243 0 0 0 5.238 5.244c1.735 0 3.265-.86 4.218-2.162.954 1.302 2.483 2.162 4.218 2.162a5.243 5.243 0 0 0 1.888-10.13c1.484-1.64 3.26-2.97 5.97-3.967 5.715-2.36 9.711 1.847 15.069 1.847z" stroke="#000" stroke-linecap="round" stroke-width="1.16727"/><path d="M412.09 311.85c-1.141 4.923-4.146 9.422-7.587 13.204-3.324 3.653-7.109 6.654-10.615 8.864 6.76 5.031 14.604 12.372 19.333 22.725h173.558c4.73-10.353 12.574-17.694 19.333-22.725-3.506-2.21-7.291-5.211-10.615-8.864-3.44-3.782-6.445-8.28-7.587-13.205H412.09z" fill="#fff"/><path d="M470.709 281.487c0 13.62-11.044 24.675-24.65 24.675-13.607 0-24.65-11.054-24.65-24.675s11.043-24.676 24.65-24.676c13.606 0 24.65 11.055 24.65 24.676z" fill="#f7c911"/><path d="M295.803 498.612l-15.4 36.104c0 2.396-1.969 4.154-4.22 4.154-.794 0-1.41-.136-2.254-.707-13.743-9.315-21.703-23.274-21.743-39.55-.215-17.915 9.622-32.234 24.814-41.376 4.028-2.214 7.667.903 7.5 5.75-.258 7.496.7 15.463 10 18l1.303 17.625z" fill="#f5dc0f" fill-rule="evenodd" stroke="#000" stroke-width="2.375" transform="matrix(.4912 0 0 .4917 299.437 36.318)"/><path d="M282.637 536.32c-12.225-5.143-20.657-14.881-23.752-27.43M281.532 529.543c-9.006-4.94-14.958-12.682-17.282-22.393M286.483 525.763c-8.737-3.867-14.68-10.99-16.822-20.004" fill="none" stroke="#000" stroke-width="1.188" stroke-linecap="round" stroke-linejoin="round" transform="matrix(.4912 0 0 .4917 299.437 36.318)"/><path d="M301.197 498.612l15.4 36.104c0 2.396 1.969 4.154 4.22 4.154.794 0 1.41-.136 2.254-.707 13.743-9.315 21.703-23.274 21.743-39.55.215-17.915-9.622-32.234-24.814-41.376-4.028-2.214-7.667.903-7.5 5.75.258 7.496-.7 15.463-10 18l-1.303 17.625z" fill="#f5dc0f" fill-rule="evenodd" stroke="#000" stroke-width="2.375" transform="matrix(.4912 0 0 .4917 299.437 36.318)"/><path d="M287.117 519.812c-6.345-3.407-10.475-8.811-12.059-15.764M289.885 514.861c-5.121-2.715-8.41-7.177-9.453-12.801M264.284 506.686a2.847 2.847 0 0 0 5.37-1.316v-16.575M258.88 508.477a2.847 2.847 0 0 0 5.37-1.316v-16.575M253.506 510.205a2.847 2.847 0 0 0 5.37-1.316v-16.574M269.69 504.957a2.847 2.847 0 0 0 5.37-1.315v-16.575" fill="none" stroke="#000" stroke-width="1.188" stroke-linecap="round" stroke-linejoin="round" transform="matrix(.4912 0 0 .4917 299.437 36.318)"/><path d="M275.032 503.198a2.847 2.847 0 0 0 5.37-1.316v-16.575M280.405 501.438a2.847 2.847 0 0 0 5.37-1.316v-16.575M332.716 506.686a2.847 2.847 0 0 1-5.37-1.316v-16.575M338.12 508.477a2.847 2.847 0 0 1-5.37-1.316v-16.575M343.494 510.205a2.847 2.847 0 0 1-5.37-1.316v-16.574M327.31 504.957a2.847 2.847 0 0 1-5.37-1.315v-16.575" fill="none" stroke="#000" stroke-width="1.188" stroke-linecap="round" stroke-linejoin="round" transform="matrix(.4912 0 0 .4917 299.437 36.318)"/><path d="M321.968 503.198a2.847 2.847 0 0 1-5.37-1.316v-16.575M316.595 501.438a2.847 2.847 0 0 1-5.37-1.316v-16.575M314.363 536.32c12.225-5.143 20.657-14.881 23.752-27.43M315.468 529.543c9.006-4.94 14.958-12.682 17.282-22.393M310.517 525.763c8.737-3.867 14.68-10.99 16.822-20.004M309.883 519.812c6.345-3.407 10.475-8.811 12.059-15.764M307.115 514.861c5.121-2.715 8.41-7.177 9.453-12.801" fill="none" stroke="#000" stroke-width="1.188" stroke-linecap="round" stroke-linejoin="round" transform="matrix(.4912 0 0 .4917 299.437 36.318)"/><path d="M305.88 506.299l12.554 23.929c1.425 2.715 1.286 5.328-1.767 6.63-5.213 2.221-10.447 4.178-18.167 4.178-7.72 0-12.953-1.957-18.167-4.178-3.053-1.302-3.192-3.915-1.767-6.63l12.555-23.929h14.758z" fill="#f5dc0f" fill-rule="evenodd" stroke="#000" stroke-width="2.375" transform="matrix(.4912 0 0 .4917 299.437 36.318)"/><path d="M301.106 511.654l2.277 14.255c.984 6.161 10.693 4.546 9.723-1.415l-2.402-14.75c.88-8.9 1.267-20.53-3.454-25.507-1.713-1.805-2.537-3.99-2.982-6.227l-1.006-5.057c-.22-1.112.623-1.372 1.3-1.372h3.557c.863 0 1.65.322 2.094 1.094.31-2.134-.069-5.133-2.375-5.282l-1.473-.125c-.617-1.353-2.12-1.28-2.835-1.28h-2.28c-4.195 0-5.993 1.625-6.923 4.004l-1.595 8.018c-.48 2.23-1.27 4.422-2.982 6.227-4.721 4.977-4.333 16.608-3.454 25.507l-2.402 14.75c-.97 5.96 8.74 7.576 9.723 1.415l2.277-14.255c.274-1.716 4.938-1.716 5.212 0z" fill="#f5dc0f" fill-rule="evenodd" stroke="#000" stroke-width="2.375" transform="matrix(.4912 0 0 .4917 299.437 36.318)"/><path d="M287.491 526.226l-1.18 6.032h-3.095c-1.575 0-2.654 1.63-2.654 2.943v3.236l2.064-2.01v-.932c0-.629.49-1.226 1.278-1.226h2.457c-.124.316-.196.61-.196.932v3.236l2.063-2.01v-.932c0-.629.49-1.226 1.278-1.226h1.327c.788 0 1.277.597 1.277 1.226v.932l2.064 2.01v-3.236c0-1.4-1.263-2.943-2.997-2.943h-2.457l.933-5.443-2.162-.589zM309.417 526.226l1.18 6.032h3.095c1.575 0 2.654 1.63 2.654 2.943v3.236l-2.064-2.01v-.932c0-.629-.49-1.226-1.278-1.226h-2.457c.124.316.197.61.197.932v3.236l-2.064-2.01v-.932c0-.629-.49-1.226-1.278-1.226h-1.327c-.788 0-1.277.597-1.277 1.226v.932l-2.064 2.01v-3.236c0-1.4 1.263-2.943 2.997-2.943h2.457l-.933-5.443 2.162-.589z" fill="#f5dc0f" fill-rule="evenodd" stroke="#000" stroke-width="1.781" transform="matrix(.4912 0 0 .4917 299.437 36.318)"/><g><path d="M578.592 281.487c0 13.62-11.044 24.675-24.65 24.675-13.607 0-24.65-11.054-24.65-24.675s11.043-24.676 24.65-24.676c13.606 0 24.65 11.055 24.65 24.676z" fill="#f7c911"/><path d="M295.803 498.612l-15.4 36.104c0 2.396-1.969 4.154-4.22 4.154-.794 0-1.41-.136-2.254-.707-13.743-9.315-21.703-23.274-21.743-39.55-.215-17.915 9.622-32.234 24.814-41.376 4.028-2.214 7.667.903 7.5 5.75-.258 7.496.7 15.463 10 18l1.303 17.625z" fill="#f5dc0f" fill-rule="evenodd" stroke="#000" stroke-width="2.375" transform="matrix(.4912 0 0 .4917 407.32 36.318)"/><path d="M282.637 536.32c-12.225-5.143-20.657-14.881-23.752-27.43M281.532 529.543c-9.006-4.94-14.958-12.682-17.282-22.393M286.483 525.763c-8.737-3.867-14.68-10.99-16.822-20.004" fill="none" stroke="#000" stroke-width="1.188" stroke-linecap="round" stroke-linejoin="round" transform="matrix(.4912 0 0 .4917 407.32 36.318)"/><path d="M301.197 498.612l15.4 36.104c0 2.396 1.969 4.154 4.22 4.154.794 0 1.41-.136 2.254-.707 13.743-9.315 21.703-23.274 21.743-39.55.215-17.915-9.622-32.234-24.814-41.376-4.028-2.214-7.667.903-7.5 5.75.258 7.496-.7 15.463-10 18l-1.303 17.625z" fill="#f5dc0f" fill-rule="evenodd" stroke="#000" stroke-width="2.375" transform="matrix(.4912 0 0 .4917 407.32 36.318)"/><path d="M287.117 519.812c-6.345-3.407-10.475-8.811-12.059-15.764M289.885 514.861c-5.121-2.715-8.41-7.177-9.453-12.801M264.284 506.686a2.847 2.847 0 0 0 5.37-1.316v-16.575M258.88 508.477a2.847 2.847 0 0 0 5.37-1.316v-16.575M253.506 510.205a2.847 2.847 0 0 0 5.37-1.316v-16.574M269.69 504.957a2.847 2.847 0 0 0 5.37-1.315v-16.575" fill="none" stroke="#000" stroke-width="1.188" stroke-linecap="round" stroke-linejoin="round" transform="matrix(.4912 0 0 .4917 407.32 36.318)"/><path d="M275.032 503.198a2.847 2.847 0 0 0 5.37-1.316v-16.575M280.405 501.438a2.847 2.847 0 0 0 5.37-1.316v-16.575M332.716 506.686a2.847 2.847 0 0 1-5.37-1.316v-16.575M338.12 508.477a2.847 2.847 0 0 1-5.37-1.316v-16.575M343.494 510.205a2.847 2.847 0 0 1-5.37-1.316v-16.574M327.31 504.957a2.847 2.847 0 0 1-5.37-1.315v-16.575" fill="none" stroke="#000" stroke-width="1.188" stroke-linecap="round" stroke-linejoin="round" transform="matrix(.4912 0 0 .4917 407.32 36.318)"/><path d="M321.968 503.198a2.847 2.847 0 0 1-5.37-1.316v-16.575M316.595 501.438a2.847 2.847 0 0 1-5.37-1.316v-16.575M314.363 536.32c12.225-5.143 20.657-14.881 23.752-27.43M315.468 529.543c9.006-4.94 14.958-12.682 17.282-22.393M310.517 525.763c8.737-3.867 14.68-10.99 16.822-20.004M309.883 519.812c6.345-3.407 10.475-8.811 12.059-15.764M307.115 514.861c5.121-2.715 8.41-7.177 9.453-12.801" fill="none" stroke="#000" stroke-width="1.188" stroke-linecap="round" stroke-linejoin="round" transform="matrix(.4912 0 0 .4917 407.32 36.318)"/><path d="M305.88 506.299l12.554 23.929c1.425 2.715 1.286 5.328-1.767 6.63-5.213 2.221-10.447 4.178-18.167 4.178-7.72 0-12.953-1.957-18.167-4.178-3.053-1.302-3.192-3.915-1.767-6.63l12.555-23.929h14.758z" fill="#f5dc0f" fill-rule="evenodd" stroke="#000" stroke-width="2.375" transform="matrix(.4912 0 0 .4917 407.32 36.318)"/><path d="M301.106 511.654l2.277 14.255c.984 6.161 10.693 4.546 9.723-1.415l-2.402-14.75c.88-8.9 1.267-20.53-3.454-25.507-1.713-1.805-2.537-3.99-2.982-6.227l-1.006-5.057c-.22-1.112.623-1.372 1.3-1.372h3.557c.863 0 1.65.322 2.094 1.094.31-2.134-.069-5.133-2.375-5.282l-1.473-.125c-.617-1.353-2.12-1.28-2.835-1.28h-2.28c-4.195 0-5.993 1.625-6.923 4.004l-1.595 8.018c-.48 2.23-1.27 4.422-2.982 6.227-4.721 4.977-4.333 16.608-3.454 25.507l-2.402 14.75c-.97 5.96 8.74 7.576 9.723 1.415l2.277-14.255c.274-1.716 4.938-1.716 5.212 0z" fill="#f5dc0f" fill-rule="evenodd" stroke="#000" stroke-width="2.375" transform="matrix(.4912 0 0 .4917 407.32 36.318)"/><path d="M287.491 526.226l-1.18 6.032h-3.095c-1.575 0-2.654 1.63-2.654 2.943v3.236l2.064-2.01v-.932c0-.629.49-1.226 1.278-1.226h2.457c-.124.316-.196.61-.196.932v3.236l2.063-2.01v-.932c0-.629.49-1.226 1.278-1.226h1.327c.788 0 1.277.597 1.277 1.226v.932l2.064 2.01v-3.236c0-1.4-1.263-2.943-2.997-2.943h-2.457l.933-5.443-2.162-.589zM309.417 526.226l1.18 6.032h3.095c1.575 0 2.654 1.63 2.654 2.943v3.236l-2.064-2.01v-.932c0-.629-.49-1.226-1.278-1.226h-2.457c.124.316.197.61.197.932v3.236l-2.064-2.01v-.932c0-.629-.49-1.226-1.278-1.226h-1.327c-.788 0-1.277.597-1.277 1.226v.932l-2.064 2.01v-3.236c0-1.4 1.263-2.943 2.997-2.943h2.457l-.933-5.443 2.162-.589z" fill="#f5dc0f" fill-rule="evenodd" stroke="#000" stroke-width="1.781" transform="matrix(.4912 0 0 .4917 407.32 36.318)"/></g><g><path d="M524.65 389.855c0 13.621-11.043 24.676-24.65 24.676s-24.65-11.055-24.65-24.676c0-13.62 11.043-24.675 24.65-24.675s24.65 11.054 24.65 24.675z" fill="#f7c911"/><path d="M295.803 498.612l-15.4 36.104c0 2.396-1.969 4.154-4.22 4.154-.794 0-1.41-.136-2.254-.707-13.743-9.315-21.703-23.274-21.743-39.55-.215-17.915 9.622-32.234 24.814-41.376 4.028-2.214 7.667.903 7.5 5.75-.258 7.496.7 15.463 10 18l1.303 17.625z" fill="#f5dc0f" fill-rule="evenodd" stroke="#000" stroke-width="2.375" transform="matrix(.4912 0 0 .4917 353.378 144.686)"/><path d="M282.637 536.32c-12.225-5.143-20.657-14.881-23.752-27.43M281.532 529.543c-9.006-4.94-14.958-12.682-17.282-22.393M286.483 525.763c-8.737-3.867-14.68-10.99-16.822-20.004" fill="none" stroke="#000" stroke-width="1.188" stroke-linecap="round" stroke-linejoin="round" transform="matrix(.4912 0 0 .4917 353.378 144.686)"/><path d="M301.197 498.612l15.4 36.104c0 2.396 1.969 4.154 4.22 4.154.794 0 1.41-.136 2.254-.707 13.743-9.315 21.703-23.274 21.743-39.55.215-17.915-9.622-32.234-24.814-41.376-4.028-2.214-7.667.903-7.5 5.75.258 7.496-.7 15.463-10 18l-1.303 17.625z" fill="#f5dc0f" fill-rule="evenodd" stroke="#000" stroke-width="2.375" transform="matrix(.4912 0 0 .4917 353.378 144.686)"/><path d="M287.117 519.812c-6.345-3.407-10.475-8.811-12.059-15.764M289.885 514.861c-5.121-2.715-8.41-7.177-9.453-12.801M264.284 506.686a2.847 2.847 0 0 0 5.37-1.316v-16.575M258.88 508.477a2.847 2.847 0 0 0 5.37-1.316v-16.575M253.506 510.205a2.847 2.847 0 0 0 5.37-1.316v-16.574M269.69 504.957a2.847 2.847 0 0 0 5.37-1.315v-16.575" fill="none" stroke="#000" stroke-width="1.188" stroke-linecap="round" stroke-linejoin="round" transform="matrix(.4912 0 0 .4917 353.378 144.686)"/><path d="M275.032 503.198a2.847 2.847 0 0 0 5.37-1.316v-16.575M280.405 501.438a2.847 2.847 0 0 0 5.37-1.316v-16.575M332.716 506.686a2.847 2.847 0 0 1-5.37-1.316v-16.575M338.12 508.477a2.847 2.847 0 0 1-5.37-1.316v-16.575M343.494 510.205a2.847 2.847 0 0 1-5.37-1.316v-16.574M327.31 504.957a2.847 2.847 0 0 1-5.37-1.315v-16.575" fill="none" stroke="#000" stroke-width="1.188" stroke-linecap="round" stroke-linejoin="round" transform="matrix(.4912 0 0 .4917 353.378 144.686)"/><path d="M321.968 503.198a2.847 2.847 0 0 1-5.37-1.316v-16.575M316.595 501.438a2.847 2.847 0 0 1-5.37-1.316v-16.575M314.363 536.32c12.225-5.143 20.657-14.881 23.752-27.43M315.468 529.543c9.006-4.94 14.958-12.682 17.282-22.393M310.517 525.763c8.737-3.867 14.68-10.99 16.822-20.004M309.883 519.812c6.345-3.407 10.475-8.811 12.059-15.764M307.115 514.861c5.121-2.715 8.41-7.177 9.453-12.801" fill="none" stroke="#000" stroke-width="1.188" stroke-linecap="round" stroke-linejoin="round" transform="matrix(.4912 0 0 .4917 353.378 144.686)"/><path d="M305.88 506.299l12.554 23.929c1.425 2.715 1.286 5.328-1.767 6.63-5.213 2.221-10.447 4.178-18.167 4.178-7.72 0-12.953-1.957-18.167-4.178-3.053-1.302-3.192-3.915-1.767-6.63l12.555-23.929h14.758z" fill="#f5dc0f" fill-rule="evenodd" stroke="#000" stroke-width="2.375" transform="matrix(.4912 0 0 .4917 353.378 144.686)"/><path d="M301.106 511.654l2.277 14.255c.984 6.161 10.693 4.546 9.723-1.415l-2.402-14.75c.88-8.9 1.267-20.53-3.454-25.507-1.713-1.805-2.537-3.99-2.982-6.227l-1.006-5.057c-.22-1.112.623-1.372 1.3-1.372h3.557c.863 0 1.65.322 2.094 1.094.31-2.134-.069-5.133-2.375-5.282l-1.473-.125c-.617-1.353-2.12-1.28-2.835-1.28h-2.28c-4.195 0-5.993 1.625-6.923 4.004l-1.595 8.018c-.48 2.23-1.27 4.422-2.982 6.227-4.721 4.977-4.333 16.608-3.454 25.507l-2.402 14.75c-.97 5.96 8.74 7.576 9.723 1.415l2.277-14.255c.274-1.716 4.938-1.716 5.212 0z" fill="#f5dc0f" fill-rule="evenodd" stroke="#000" stroke-width="2.375" transform="matrix(.4912 0 0 .4917 353.378 144.686)"/><path d="M287.491 526.226l-1.18 6.032h-3.095c-1.575 0-2.654 1.63-2.654 2.943v3.236l2.064-2.01v-.932c0-.629.49-1.226 1.278-1.226h2.457c-.124.316-.196.61-.196.932v3.236l2.063-2.01v-.932c0-.629.49-1.226 1.278-1.226h1.327c.788 0 1.277.597 1.277 1.226v.932l2.064 2.01v-3.236c0-1.4-1.263-2.943-2.997-2.943h-2.457l.933-5.443-2.162-.589zM309.417 526.226l1.18 6.032h3.095c1.575 0 2.654 1.63 2.654 2.943v3.236l-2.064-2.01v-.932c0-.629-.49-1.226-1.278-1.226h-2.457c.124.316.197.61.197.932v3.236l-2.064-2.01v-.932c0-.629-.49-1.226-1.278-1.226h-1.327c-.788 0-1.277.597-1.277 1.226v.932l-2.064 2.01v-3.236c0-1.4 1.263-2.943 2.997-2.943h2.457l-.933-5.443 2.162-.589z" fill="#f5dc0f" fill-rule="evenodd" stroke="#000" stroke-width="1.781" transform="matrix(.4912 0 0 .4917 353.378 144.686)"/></g><g fill="#1663cf"><path d="M418.47 311.841h14.824v14.94h-14.823v-14.94zM448.118 311.841h14.824v14.94h-14.824v-14.94zM477.765 311.841h14.824v14.94h-14.824v-14.94zM507.412 311.841h14.824v14.94h-14.824v-14.94zM537.06 311.841h14.823v14.94H537.06v-14.94z"/><path d="M403.647 326.78h14.824v14.94h-14.824v-14.94zM433.294 326.78h14.824v14.94h-14.824v-14.94zM462.942 326.78h14.823v14.94h-14.823v-14.94zM492.589 326.78h14.823v14.94H492.59v-14.94zM522.236 326.78h14.824v14.94h-14.824v-14.94zM418.47 341.72h14.824v14.938h-14.823V341.72zM448.118 341.72h14.824v14.938h-14.824V341.72zM477.765 341.72h14.824v14.938h-14.824V341.72zM507.412 341.72h14.824v14.938h-14.824V341.72zM537.06 341.72h14.823v14.938H537.06V341.72zM566.706 311.841h14.823v14.94h-14.823v-14.94zM551.882 326.78h14.824v14.94h-14.824v-14.94zM581.53 326.78h14.823v14.94h-14.824v-14.94zM566.706 341.72h14.823v14.938h-14.823V341.72z"/></g><g><g stroke="#fff" stroke-width="1.072"><path d="M403.546 230.326v5.184c3.644.084 7.162.388 10.58.868v-5.163c2.43.364 4.82.842 7.194 1.375v5.226c1.61.423 3.208.921 4.761 1.735v-5.31c1.128.433 2.378 1.174 3.45 2.115v7.703l-2.732 2.028v91.21l1.885 1.642-.015 7.107c-3.706 3.785-17.872 5.63-31.427 5.63s-27.542-1.845-31.248-5.63l-.014-7.107 1.884-1.642v-91.21l-2.73-2.028v-7.703c1.07-.94 2.32-1.682 3.448-2.116v5.311c1.554-.814 3.152-1.312 4.761-1.735v-5.226c2.373-.533 4.765-1.011 7.194-1.375v5.163a91.236 91.236 0 0 1 10.58-.868v-5.184c3.776-.134 7.78-.184 12.429 0z" fill-rule="evenodd" stroke-width="2.144" stroke-linejoin="round" transform="matrix(.54426 0 0 .54482 283.929 9.831)"/><path d="M367.625 246.477c7.014-6.049 50.762-5.948 59.13 0M367.625 257.83c7.014-3.75 50.762-3.687 59.13 0M367.625 269.183c3.114-1.2 13.473-1.86 24.76-1.988M397.042 303.3v11.237M380.313 303.372v10.983M388.345 291.369v11.707M373.83 292.062v11.727M388.345 314.351v14.321M373.83 314.957v12.53M380.313 291.6v-11.808M380.313 267.5v-11.872M388.345 279.414V267.21M373.83 280.077v-11.978M388.345 255.22v-12.824M373.83 256.236v-12.19M392.387 255.04v36.292M426.806 269.183c-3.115-1.2-13.473-1.86-24.76-1.988M414.118 303.382v11.217M406.086 291.339v11.772M420.601 292.062v11.672M406.086 314.351v14.321M420.601 314.997v12.49M414.118 291.63v-11.838M414.118 267.5v-11.872M406.086 279.354V267.21M420.601 280.077v-11.978M406.086 255.22v-12.824M420.601 256.236v-12.19M402.044 255.04v36.113" fill="none" transform="matrix(.54426 0 0 .54482 283.929 9.831)"/><path d="M368.561 234.24l2.835 1.609v2.539l-2.793 1.1-.042-5.248zM380.538 231.236v5.078l2.03-.17v-2.538l-2.03-2.37zM426.087 234.24l-2.835 1.609v2.539l2.793 1.1.042-5.248zM414.11 231.236v5.078l-2.03-.17v-2.538l2.03-2.37z" fill-rule="evenodd" stroke-width="2.144" stroke-linejoin="round" transform="matrix(.54426 0 0 .54482 283.929 9.831)"/><path d="M367.625 292.87c7.014-2.156 50.762-2.12 59.13 0M367.625 304.6c7.014-2.155 50.762-2.12 59.13 0M367.625 315.852c7.014-2.156 50.762-2.12 59.13 0M402.128 279.331c10.925.134 21.035.66 24.627 1.57m-59.13 0c3.113-.957 13.462-1.482 24.742-1.585" fill="none" transform="matrix(.54426 0 0 .54482 283.929 9.831)"/></g><path stroke="#fff" stroke-width=".583635" stroke-linecap="round" stroke-linejoin="round" d="M463.654 188.92h72.691v38.175h-72.691z"/><path d="M463.662 227.104h72.653m-72.653-3.473h72.653m-72.653-3.473h72.653m-72.653-3.472h72.653m-72.653-3.473h72.653m-72.653-3.473h72.653m-72.653-3.473h72.653m-72.653-3.473h72.653m-72.653-3.473h72.653m-72.653-3.473h72.653m-72.653-3.473h72.653m-72.653-3.473h72.653M463.672 188.884v3.456m7.263-3.456v3.456m7.262-3.456v3.456m7.262-3.456v3.456m7.262-3.456v3.456m7.263-3.456v3.456M463.672 195.857v3.455m7.263-3.455v3.455m7.262-3.455v3.455m7.262-3.455v3.455m7.262-3.455v3.455m7.263-3.455v3.455M463.672 202.762v3.456m7.263-3.456v3.456m7.262-3.456v3.456m7.262-3.456v3.456m7.262-3.456v3.456m7.263-3.456v3.456M467.313 192.337v3.455m7.262-3.455v3.455m7.262-3.455v3.455m7.263-3.455v3.455m7.262-3.455v3.455M467.313 199.31v3.455m7.262-3.456v3.456m7.262-3.456v3.456m7.263-3.456v3.456m7.262-3.456v3.456M467.313 206.248v3.456m7.262-3.456v3.456m7.262-3.456v3.456m7.263-3.456v3.456m7.262-3.456v3.456M463.672 209.751v3.456m7.263-3.456v3.456m7.262-3.456v3.456m7.262-3.456v3.456m7.262-3.456v3.456m7.263-3.456v3.456M463.672 216.724v3.456m7.263-3.456v3.456m7.262-3.456v3.456m7.262-3.456v3.456m7.262-3.456v3.456m7.263-3.456v3.456M463.672 223.63v3.455m7.263-3.455v3.455m7.262-3.455v3.455m7.262-3.455v3.455m7.262-3.455v3.455m7.263-3.455v3.455M467.313 213.204v3.456m7.262-3.456v3.456m7.262-3.456v3.456m7.263-3.456v3.456m7.262-3.456v3.456M467.313 220.177v3.456m7.262-3.456v3.456m7.262-3.456v3.456m7.263-3.456v3.456m7.262-3.456v3.456M507.254 188.884v3.456m7.263-3.456v3.456m7.262-3.456v3.456m7.262-3.456v3.456m7.262-3.456v3.456M507.254 195.857v3.455m7.263-3.455v3.455m7.262-3.455v3.455m7.262-3.455v3.455m7.262-3.455v3.455M507.254 202.762v3.456m7.263-3.456v3.456m7.262-3.456v3.456m7.262-3.456v3.456m7.262-3.456v3.456M503.633 192.337v3.455m7.262-3.455v3.455m7.262-3.455v3.455m7.262-3.455v3.455m7.263-3.455v3.455M503.633 199.31v3.455m7.262-3.456v3.456m7.262-3.456v3.456m7.262-3.456v3.456m7.263-3.456v3.456M503.633 206.248v3.456m7.262-3.456v3.456m7.262-3.456v3.456m7.262-3.456v3.456m7.263-3.456v3.456M507.254 209.751v3.456m7.263-3.456v3.456m7.262-3.456v3.456m7.262-3.456v3.456m7.262-3.456v3.456M507.254 216.724v3.456m7.263-3.456v3.456m7.262-3.456v3.456m7.262-3.456v3.456m7.262-3.456v3.456M507.254 223.63v3.455m7.263-3.455v3.455m7.262-3.455v3.455m7.262-3.455v3.455m7.262-3.455v3.455M503.633 213.204v3.456m7.262-3.456v3.456m7.262-3.456v3.456m7.262-3.456v3.456m7.263-3.456v3.456M503.633 220.177v3.456m7.262-3.456v3.456m7.262-3.456v3.456m7.262-3.456v3.456m7.263-3.456v3.456" fill="none" stroke="#fff" stroke-width=".583635"/><path d="M470.29 183.556h6.602v5.363h-6.601v-5.363zM476.892 184.897h6.602v4.022h-6.602v-4.022zM483.494 183.556h6.602v5.363h-6.602v-5.363zM490.096 184.897h6.602v4.022h-6.602v-4.022zM496.698 183.556h6.602v5.363h-6.602v-5.363zM503.3 184.897h6.601v4.022H503.3v-4.022zM509.901 183.556h6.602v5.363h-6.602v-5.363zM516.503 184.897h6.602v4.022h-6.602v-4.022zM523.105 183.556h6.602v5.363h-6.602v-5.363zM529.707 184.897h6.602v4.022h-6.602v-4.022z" stroke="#fff" stroke-width=".583635" stroke-linecap="round" stroke-linejoin="round"/><path d="M463.689 184.897h6.602v4.022h-6.602v-4.022z" stroke="#fff" stroke-width=".583635" stroke-linecap="round" stroke-linejoin="round"/><path d="M509.79 227.118V202.84L500 189.006l-9.79 13.834v24.278h19.58z" fill="#fff" fill-rule="evenodd"/><path d="M507.704 227.121v-23.564L500 192.65l-7.704 10.908v23.564h15.408z" fill-rule="evenodd"/><g stroke="#fff" stroke-width="1.072"><path d="M307.396 281.786v5.185c3.644.084 7.162.388 10.58.867v-5.163c2.43.364 4.82.843 7.194 1.376v5.226c1.61.423 3.208.921 4.761 1.735v-5.311c1.127.433 2.378 1.175 3.45 2.116v7.702l-2.732 2.029v91.21l1.885 1.642-.015 7.106c-3.706 3.785-17.872 5.63-31.427 5.63s-27.542-1.845-31.248-5.63l-.015-7.106 1.885-1.642v-91.21l-2.73-2.029v-7.702c1.07-.94 2.32-1.683 3.448-2.116v5.311c1.553-.814 3.152-1.312 4.761-1.735v-5.226c2.373-.533 4.765-1.012 7.194-1.376v5.163a91.236 91.236 0 0 1 10.58-.867v-5.185c3.776-.133 7.78-.183 12.429 0z" fill-rule="evenodd" stroke-width="2.144" stroke-linejoin="round" transform="matrix(.54426 0 0 .54482 283.38 9.831)"/><path d="M271.475 343.39h59.13M271.475 388.802c7.014 6.05 50.762 5.949 59.13 0M271.475 377.45c7.014 3.749 50.762 3.686 59.13 0M271.475 366.096c7.014 2.704 50.762 2.66 59.13 0M271.475 354.743c7.014 1.241 50.762 1.22 59.13 0M271.475 297.938c7.014-6.05 50.762-5.949 59.13 0M271.475 309.29c7.014-3.749 50.762-3.687 59.13 0M271.475 320.644c3.114-1.201 13.473-1.86 24.76-1.988M271.475 331.997c3.114-.551 13.473-.854 24.76-.913M301.04 355.692v12.337M284.163 355.425v12.253M292.195 343.398v12.274M277.68 343.313v11.936M301.04 380.153v13.056M284.163 379.674v12.803M292.195 368.028v12.105M277.68 367.224v11.724M284.163 343.389v-12.136M284.163 318.96v-11.872M292.195 331.114V318.67M277.68 331.537V319.56M292.195 306.681v-12.824M277.68 307.697v-12.19M296.237 306.501v36.86M330.656 320.644c-3.115-1.201-13.473-1.86-24.76-1.988M330.656 331.997c-3.115-.551-13.473-.854-24.76-.913M317.968 355.425v12.253M309.936 343.398v12.274M324.451 343.313v11.936M317.968 379.674v12.803M309.936 368.028v12.105M324.451 367.224v11.724M317.968 343.389v-12.136M317.968 318.96v-11.872M309.936 331.114V318.67M324.451 331.537V319.56M309.936 306.681v-12.824M324.451 307.697v-12.19M305.894 306.501v36.86" fill="none" transform="matrix(.54426 0 0 .54482 283.38 9.831)"/><path d="M272.411 285.701l2.835 1.608v2.54l-2.793 1.1-.042-5.248zM284.387 282.696v5.079l2.032-.17v-2.539l-2.032-2.37zM329.937 285.701l-2.835 1.608v2.54l2.793 1.1.042-5.248zM317.96 282.696v5.079l-2.03-.17v-2.539l2.03-2.37z" fill-rule="evenodd" stroke-width="2.144" stroke-linejoin="round" transform="matrix(.54426 0 0 .54482 283.38 9.831)"/><g><path d="M307.396 281.786v5.185c3.644.084 7.162.388 10.58.867v-5.163c2.43.364 4.82.843 7.194 1.376v5.226c1.61.423 3.208.921 4.761 1.735v-5.311c1.127.433 2.378 1.175 3.45 2.116v7.702l-2.732 2.029v91.21l1.885 1.642-.015 7.106c-3.706 3.785-17.872 5.63-31.427 5.63s-27.542-1.845-31.248-5.63l-.015-7.106 1.885-1.642v-91.21l-2.73-2.029v-7.702c1.07-.94 2.32-1.683 3.448-2.116v5.311c1.553-.814 3.152-1.312 4.761-1.735v-5.226c2.373-.533 4.765-1.012 7.194-1.376v5.163a91.236 91.236 0 0 1 10.58-.867v-5.185c3.776-.133 7.78-.183 12.429 0z" fill-rule="evenodd" stroke-width="2.144" stroke-linejoin="round" transform="matrix(.54426 0 0 .54482 388.778 9.831)"/><path d="M271.475 343.39h59.13M271.475 388.802c7.014 6.05 50.762 5.949 59.13 0M271.475 377.45c7.014 3.749 50.762 3.686 59.13 0M271.475 366.096c7.014 2.704 50.762 2.66 59.13 0M271.475 354.743c7.014 1.241 50.762 1.22 59.13 0M271.475 297.938c7.014-6.05 50.762-5.949 59.13 0M271.475 309.29c7.014-3.749 50.762-3.687 59.13 0M271.475 320.644c3.114-1.201 13.473-1.86 24.76-1.988M271.475 331.997c3.114-.551 13.473-.854 24.76-.913M301.04 355.692v12.337M284.163 355.425v12.253M292.195 343.398v12.274M277.68 343.313v11.936M301.04 380.153v13.056M284.163 379.674v12.803M292.195 368.028v12.105M277.68 367.224v11.724M284.163 343.389v-12.136M284.163 318.96v-11.872M292.195 331.114V318.67M277.68 331.537V319.56M292.195 306.681v-12.824M277.68 307.697v-12.19M296.237 306.501v36.86M330.656 320.644c-3.115-1.201-13.473-1.86-24.76-1.988M330.656 331.997c-3.115-.551-13.473-.854-24.76-.913M317.968 355.425v12.253M309.936 343.398v12.274M324.451 343.313v11.936M317.968 379.674v12.803M309.936 368.028v12.105M324.451 367.224v11.724M317.968 343.389v-12.136M317.968 318.96v-11.872M309.936 331.114V318.67M324.451 331.537V319.56M309.936 306.681v-12.824M324.451 307.697v-12.19M305.894 306.501v36.86" fill="none" transform="matrix(.54426 0 0 .54482 388.778 9.831)"/><path d="M272.411 285.701l2.835 1.608v2.54l-2.793 1.1-.042-5.248zM284.387 282.696v5.079l2.032-.17v-2.539l-2.032-2.37zM329.937 285.701l-2.835 1.608v2.54l2.793 1.1.042-5.248zM317.96 282.696v5.079l-2.03-.17v-2.539l2.03-2.37z" fill-rule="evenodd" stroke-width="2.144" stroke-linejoin="round" transform="matrix(.54426 0 0 .54482 388.778 9.831)"/></g></g><path d="M463.231 227.097h73.611" fill="none" stroke="#fff" stroke-width="1.16727"/><path d="M536.308 184.91h-6.302v-1.35h-7.195v1.35h-6.01v-1.35h-7.194v1.35h-6v-1.35h-7.196v1.35h-6.019v-1.35h-7.186v1.35h-6.028v-1.35h-7.24v1.35h-6.22" fill="none" stroke="#fff" stroke-linecap="round" stroke-width="1.16727"/></g><path d="M500 240.504c5.358 0 9.354-4.207 15.07-1.847 2.71.997 4.485 2.327 5.97 3.967a5.243 5.243 0 0 0 1.888 10.13c1.734 0 3.264-.86 4.217-2.162.953 1.302 2.483 2.162 4.218 2.162a5.243 5.243 0 0 0 5.238-5.244 5.242 5.242 0 0 0-2.568-4.511c.285-.228.58-.434.885-.613 1.584-.93 3.652-1.334 6.31-1.226 5.1.206 8.115 1.898 11.922 4.035 3.808 2.137 8.363 4.723 15.12 5.363 4.606.436 8.155-.032 11.124-.92-.601 2.48-.74 5.283-.051 8.496 1.952 9.1 7.559 14.574 12.739 17.758 2.59 1.592 5.075 2.666 7.007 3.49 2.237 1.007 4.092 1.787 5.392 3.985-4.38.918-8.09 3.21-10.766 6.452-3.417 4.14-5.324 9.577-6.14 15.545-1.021 7.466 3.02 14.308 7.926 19.699 3.323 3.652 7.09 6.643 10.596 8.853-7.332 5.457-15.935 13.632-20.461 25.42-3.962 10.32-7.641 19.283-11.617 24.789-1.987 2.753-3.997 4.58-5.986 5.533-.42.201-.848.359-1.276.494a5.256 5.256 0 0 0-1.905-6.504 5.221 5.221 0 0 0-7.245 1.481 5.24 5.24 0 0 0-.528 4.716c-1.61.079-3.176.884-4.133 2.333a5.253 5.253 0 0 0 1.48 7.27 5.244 5.244 0 0 0 5.732.034c.604 1.747.551 3.162.187 4.427-.623 2.161-2.557 4.342-5.51 6.316-5.91 3.948-15.13 6.556-20.274 8.24-12.009 3.934-24.915 12.538-34.561 20.504-9.646-7.966-22.552-16.57-34.56-20.503-5.145-1.685-14.366-4.293-20.274-8.24-2.954-1.975-4.888-4.156-5.51-6.317-.365-1.265-.418-2.68.186-4.427a5.244 5.244 0 0 0 5.732-.034 5.253 5.253 0 0 0 1.48-7.27c-.957-1.45-2.522-2.254-4.133-2.333a5.24 5.24 0 0 0-.528-4.716 5.221 5.221 0 0 0-7.245-1.48 5.256 5.256 0 0 0-1.905 6.503 9.682 9.682 0 0 1-1.276-.494c-1.99-.954-3.999-2.78-5.986-5.533-3.976-5.506-7.655-14.47-11.617-24.79-4.526-11.787-13.13-19.962-20.46-25.419 3.505-2.21 7.272-5.2 10.595-8.853 4.906-5.391 8.947-12.233 7.926-19.7-.816-5.967-2.723-11.404-6.14-15.544-2.676-3.242-6.385-5.534-10.766-6.452 1.3-2.198 3.155-2.978 5.392-3.984 1.932-.825 4.417-1.899 7.007-3.49 5.18-3.185 10.787-8.66 12.74-17.759.689-3.213.55-6.016-.052-8.495 2.969.887 6.518 1.355 11.123.92 6.758-.64 11.313-3.227 15.12-5.364 3.808-2.137 6.824-3.829 11.923-4.035 2.658-.108 4.726.296 6.31 1.226.306.179.6.385.885.613a5.242 5.242 0 0 0-2.568 4.511 5.243 5.243 0 0 0 5.238 5.244c1.735 0 3.265-.86 4.218-2.162.954 1.302 2.483 2.162 4.218 2.162a5.243 5.243 0 0 0 1.888-10.13c1.484-1.64 3.26-2.97 5.97-3.967 5.715-2.36 9.711 1.847 15.069 1.847z" fill="none" stroke="#000" stroke-linecap="round" stroke-width="1.16727"/></svg>